<svg xmlns="http://www.w3.org/2000/svg" xmlns:xlink="http://www.w3.org/1999/xlink" width="101" zoomAndPan="magnify" viewBox="0 0 75.75 96.75" height="129" preserveAspectRatio="xMidYMid meet" version="1.0"><defs><clipPath id="2b8d04cc40"><path d="M 19 0.0351562 L 30 0.0351562 L 30 10 L 19 10 Z M 19 0.0351562 " clip-rule="nonzero"/></clipPath><clipPath id="ce0b93217b"><path d="M 17 0.0351562 L 20 0.0351562 L 20 8 L 17 8 Z M 17 0.0351562 " clip-rule="nonzero"/></clipPath></defs><path fill="#ad8c65" d="M 25.914062 23.496094 C 25.714844 24.394531 25.617188 25.289062 25.21875 26.089844 C 24.917969 26.785156 24.519531 27.484375 24.222656 28.082031 C 23.921875 28.679688 23.621094 29.378906 23.222656 29.976562 C 22.726562 30.773438 21.929688 31.269531 21.132812 31.769531 C 20.234375 31.171875 19.4375 30.574219 18.738281 29.675781 C 18.242188 28.980469 17.839844 28.082031 17.640625 27.285156 C 17.042969 25.289062 16.945312 23.296875 16.84375 21.203125 C 16.746094 19.011719 16.746094 16.820312 16.746094 14.625 C 16.746094 13.828125 16.644531 12.832031 17.34375 12.035156 C 17.941406 11.238281 18.9375 11.136719 19.535156 11.039062 C 19.636719 11.535156 19.734375 12.234375 20.234375 12.929688 C 20.433594 13.230469 20.832031 13.628906 21.628906 14.226562 C 21.828125 14.425781 22.027344 14.527344 22.328125 14.625 C 22.726562 14.726562 23.324219 14.226562 23.722656 14.128906 C 24.320312 13.828125 24.917969 13.730469 25.515625 13.527344 C 25.617188 13.929688 25.714844 14.425781 25.816406 14.824219 C 25.816406 14.925781 25.816406 15.023438 25.914062 15.125 C 26.414062 17.914062 26.414062 20.707031 25.914062 23.496094 Z M 25.914062 23.496094 " fill-opacity="1" fill-rule="nonzero"/><path fill="#000000" d="M 18.738281 11.238281 C 18.738281 11.835938 18.839844 12.433594 18.839844 13.03125 C 18.9375 14.128906 19.136719 15.324219 19.535156 16.320312 C 20.433594 15.820312 21.132812 15.222656 21.929688 14.527344 C 22.027344 14.425781 22.226562 14.625 22.128906 14.726562 C 21.429688 15.523438 20.53125 16.121094 19.535156 16.617188 C 19.4375 16.617188 19.4375 16.617188 19.335938 16.519531 C 19.136719 15.921875 18.9375 15.324219 18.839844 14.726562 C 18.738281 14.226562 18.640625 13.628906 18.539062 13.128906 C 18.441406 12.53125 18.441406 11.933594 18.441406 11.335938 Z M 18.738281 11.238281 " fill-opacity="1" fill-rule="nonzero"/><path fill="#000000" d="M 25.914062 15.125 C 25.617188 15.421875 25.316406 15.820312 25.117188 16.121094 C 25.117188 16.21875 25.019531 16.21875 24.917969 16.121094 C 24.222656 15.820312 23.421875 15.222656 23.125 14.527344 C 23.125 14.425781 23.125 14.425781 23.222656 14.425781 C 23.523438 14.625 23.820312 14.925781 24.121094 15.222656 C 24.421875 15.421875 24.71875 15.621094 25.019531 15.820312 C 25.316406 15.421875 25.617188 15.023438 25.914062 14.726562 C 25.914062 14.925781 25.914062 15.023438 25.914062 15.125 Z M 25.914062 15.125 " fill-opacity="1" fill-rule="nonzero"/><path fill="#ad8c65" d="M 49.339844 72.835938 C 49.4375 73.234375 49.4375 73.734375 49.339844 74.132812 C 49.238281 74.53125 49.140625 75.027344 49.140625 75.425781 C 49.140625 76.125 49.539062 76.722656 49.738281 77.320312 C 50.035156 78.117188 50.234375 79.015625 50.234375 79.8125 C 50.234375 80.3125 50.136719 80.910156 49.738281 81.308594 C 49.4375 81.605469 49.039062 81.707031 48.640625 81.707031 C 48.242188 81.707031 47.84375 81.804688 47.445312 81.605469 C 46.847656 81.308594 46.546875 80.710938 46.546875 80.113281 C 46.449219 79.511719 46.648438 78.914062 46.746094 78.21875 C 46.847656 77.121094 46.847656 76.023438 46.945312 74.929688 C 47.046875 74.132812 47.34375 73.332031 47.742188 72.636719 C 47.941406 72.4375 48.242188 71.9375 48.542969 71.9375 C 48.941406 72.039062 49.238281 72.535156 49.339844 72.835938 Z M 49.339844 72.835938 " fill-opacity="1" fill-rule="nonzero"/><path fill="#ad8c65" d="M 43.757812 81.40625 C 43.757812 82.105469 43.457031 82.402344 43.058594 83.402344 C 42.660156 84.398438 42.460938 85.394531 42.460938 86.390625 C 42.460938 86.890625 42.460938 87.488281 42.164062 87.984375 C 41.863281 88.484375 41.265625 88.785156 40.667969 88.984375 C 39.871094 89.183594 39.074219 89.28125 38.175781 89.28125 C 37.578125 89.28125 37.378906 89.082031 37.277344 88.984375 C 36.78125 88.484375 37.179688 87.488281 37.277344 87.289062 C 37.476562 87.488281 38.472656 88.285156 39.769531 88.183594 C 39.96875 88.183594 41.164062 88.085938 41.664062 87.1875 C 41.863281 86.890625 41.863281 86.492188 41.960938 85.992188 C 42.363281 83.601562 42.363281 82.804688 42.660156 81.605469 C 42.761719 81.207031 42.960938 80.710938 43.257812 80.113281 C 43.558594 80.3125 43.757812 80.808594 43.757812 81.40625 Z M 43.757812 81.40625 " fill-opacity="1" fill-rule="nonzero"/><path fill="#f6e5d3" d="M 43.558594 80.210938 C 43.757812 81.007812 43.457031 81.90625 43.160156 82.601562 C 42.859375 83.402344 42.363281 84.097656 42.363281 84.894531 C 42.261719 85.59375 42.460938 86.292969 42.261719 86.890625 C 42.164062 87.089844 42.164062 87.1875 41.960938 87.289062 C 41.863281 87.488281 41.664062 87.6875 41.464844 87.785156 C 41.164062 87.984375 40.867188 88.085938 40.566406 88.183594 C 39.871094 88.285156 39.074219 88.183594 38.375 88.085938 C 37.875 87.984375 37.578125 87.785156 37.476562 87.488281 C 37.378906 87.1875 37.476562 86.988281 37.675781 86.589844 C 37.777344 86.390625 37.875 86.292969 38.074219 86.09375 C 38.273438 85.792969 38.574219 85.394531 38.773438 84.894531 C 39.273438 83.898438 38.972656 83.800781 39.570312 80.910156 C 39.769531 79.914062 39.871094 79.914062 40.070312 78.714844 C 40.070312 78.714844 40.070312 78.617188 40.070312 78.617188 C 40.070312 78.417969 40.167969 78.21875 40.167969 78.019531 C 40.46875 76.625 40.667969 75.925781 40.667969 75.226562 C 40.867188 72.835938 40.367188 71.839844 40.964844 69.746094 C 41.164062 69.148438 41.265625 68.847656 41.5625 68.550781 C 41.960938 68.152344 45.550781 68.050781 45.453125 68.449219 C 44.652344 71.242188 43.855469 74.132812 42.960938 76.921875 C 42.859375 77.421875 42.660156 77.917969 42.761719 78.417969 C 42.761719 78.515625 42.761719 78.515625 42.761719 78.617188 C 42.859375 78.816406 42.960938 79.015625 43.058594 79.214844 C 43.257812 79.613281 43.457031 79.914062 43.558594 80.210938 Z M 43.558594 80.210938 " fill-opacity="1" fill-rule="nonzero"/><path fill="#ad8c65" d="M 41.960938 87.386719 C 41.863281 87.585938 41.664062 87.785156 41.464844 87.886719 C 40.367188 87.089844 38.972656 86.691406 37.578125 86.691406 C 37.675781 86.492188 37.777344 86.390625 37.976562 86.191406 C 38.074219 86.191406 38.175781 86.191406 38.273438 86.191406 C 39.074219 86.09375 39.871094 86.292969 40.667969 86.589844 C 41.066406 86.789062 41.363281 86.988281 41.761719 87.1875 C 41.863281 87.1875 41.960938 87.289062 41.960938 87.386719 Z M 41.960938 87.386719 " fill-opacity="1" fill-rule="nonzero"/><path fill="#ad8c65" d="M 43.160156 79.214844 C 42.660156 79.3125 41.761719 79.414062 40.765625 79.113281 C 40.46875 79.015625 40.269531 78.914062 40.070312 78.816406 C 40.070312 78.816406 40.070312 78.714844 40.070312 78.714844 C 40.070312 78.515625 40.167969 78.316406 40.167969 78.117188 C 40.566406 78.316406 41.164062 78.617188 41.960938 78.714844 C 42.261719 78.714844 42.5625 78.714844 42.859375 78.714844 C 42.960938 78.816406 43.058594 79.015625 43.160156 79.214844 Z M 43.160156 79.214844 " fill-opacity="1" fill-rule="nonzero"/><path fill="#f6e5d3" d="M 49.738281 79.015625 C 49.738281 79.3125 49.636719 79.613281 49.539062 79.8125 C 49.4375 80.113281 49.339844 80.410156 49.238281 80.609375 C 49.039062 80.910156 48.839844 81.109375 48.542969 81.109375 C 48.242188 81.207031 47.941406 81.109375 47.542969 80.910156 C 47.34375 80.808594 47.246094 80.710938 47.144531 80.710938 C 47.144531 80.710938 46.945312 80.511719 46.847656 80.3125 C 46.746094 80.113281 46.746094 80.011719 46.746094 79.8125 C 46.746094 79.511719 46.746094 79.113281 46.746094 78.816406 C 46.746094 78.714844 46.746094 78.515625 46.746094 78.417969 C 46.847656 77.71875 46.746094 77.222656 46.546875 76.222656 C 46.347656 75.425781 46.050781 74.628906 45.75 73.832031 C 45.351562 72.835938 45.054688 71.9375 44.652344 70.941406 C 44.453125 70.542969 44.15625 70.042969 44.054688 69.546875 C 44.054688 69.347656 44.15625 69.246094 44.253906 69.148438 C 44.253906 69.148438 44.753906 68.75 44.851562 68.75 C 45.949219 69.546875 47.144531 70.441406 48.242188 71.339844 C 48.34375 71.441406 48.542969 71.539062 48.640625 71.738281 C 48.839844 72.136719 48.742188 72.535156 48.542969 73.035156 C 48.242188 74.230469 48.441406 75.425781 48.941406 76.523438 C 49.140625 76.921875 49.4375 77.320312 49.539062 77.820312 C 49.835938 78.21875 49.835938 78.617188 49.738281 79.015625 Z M 49.738281 79.015625 " fill-opacity="1" fill-rule="nonzero"/><path fill="#f6e5d3" d="M 23.621094 79.414062 C 23.523438 80.011719 23.421875 80.609375 23.421875 81.109375 C 23.421875 81.40625 23.523438 81.707031 23.324219 82.003906 C 23.222656 82.105469 23.023438 82.203125 22.925781 82.203125 C 22.027344 82.503906 21.03125 82.804688 20.132812 83.101562 C 19.535156 81.707031 19.734375 80.113281 19.933594 78.515625 C 19.933594 78.316406 19.933594 78.21875 20.035156 78.019531 C 20.132812 77.820312 20.433594 77.71875 20.632812 77.621094 C 21.132812 77.519531 21.53125 77.320312 22.027344 77.222656 C 22.328125 77.121094 22.824219 76.824219 23.125 77.023438 C 23.324219 77.222656 23.523438 77.71875 23.523438 78.019531 C 23.621094 78.617188 23.621094 79.015625 23.621094 79.414062 Z M 23.621094 79.414062 " fill-opacity="1" fill-rule="nonzero"/><path fill="#000000" d="M 20.132812 83.300781 C 20.132812 83.300781 20.035156 83.300781 20.035156 83.203125 C 19.4375 81.707031 19.636719 80.011719 19.835938 78.617188 C 19.835938 78.417969 19.835938 78.21875 20.035156 78.117188 C 20.234375 77.917969 20.433594 77.820312 20.730469 77.71875 L 22.128906 77.320312 C 22.226562 77.320312 22.226562 77.320312 22.328125 77.222656 C 22.625 77.121094 23.023438 76.921875 23.324219 77.121094 C 23.523438 77.320312 23.722656 77.71875 23.722656 78.117188 L 23.722656 78.21875 C 23.820312 78.617188 23.820312 79.015625 23.820312 79.3125 L 23.820312 79.414062 C 23.820312 79.613281 23.722656 79.8125 23.722656 80.011719 C 23.621094 80.410156 23.621094 80.710938 23.621094 81.109375 C 23.621094 81.109375 23.621094 81.207031 23.621094 81.207031 C 23.621094 81.507812 23.722656 81.804688 23.523438 82.003906 C 23.324219 82.304688 23.125 82.402344 22.925781 82.402344 Z M 22.925781 77.222656 C 22.726562 77.222656 22.527344 77.320312 22.328125 77.421875 C 22.226562 77.421875 22.128906 77.519531 22.128906 77.519531 L 20.730469 77.917969 C 20.53125 78.019531 20.332031 78.019531 20.234375 78.21875 C 20.132812 78.316406 20.132812 78.515625 20.132812 78.617188 C 19.933594 80.011719 19.835938 81.605469 20.332031 83.003906 L 23.023438 82.105469 C 23.222656 82.003906 23.324219 82.003906 23.421875 81.90625 C 23.523438 81.707031 23.523438 81.507812 23.523438 81.308594 C 23.523438 81.207031 23.523438 81.207031 23.523438 81.207031 C 23.523438 80.808594 23.523438 80.410156 23.621094 80.011719 C 23.621094 79.8125 23.722656 79.613281 23.722656 79.414062 L 23.722656 79.3125 C 23.722656 78.914062 23.722656 78.617188 23.621094 78.21875 L 23.621094 78.117188 C 23.523438 77.820312 23.421875 77.421875 23.324219 77.222656 C 23.023438 77.222656 22.925781 77.222656 22.925781 77.222656 Z M 23.621094 79.414062 Z M 23.621094 79.414062 " fill-opacity="1" fill-rule="nonzero"/><path fill="#000000" d="M 21.03125 80.910156 C 21.429688 81.007812 21.628906 81.109375 21.828125 81.207031 C 22.226562 81.308594 22.527344 81.40625 22.625 81.605469 C 22.625 81.707031 22.625 81.804688 22.726562 81.90625 C 22.824219 82.003906 23.125 82.003906 23.324219 81.90625 C 23.523438 81.707031 23.523438 81.40625 23.621094 81.40625 C 23.722656 81.40625 23.722656 81.605469 23.722656 81.804688 C 23.820312 82.804688 22.824219 84 22.625 85.394531 C 22.527344 86.09375 22.527344 86.890625 22.328125 87.585938 C 22.027344 88.582031 21.03125 89.382812 20.035156 89.582031 C 19.039062 89.78125 17.941406 89.480469 17.042969 88.984375 C 16.746094 88.785156 16.445312 88.582031 16.347656 88.285156 C 16.246094 87.984375 16.246094 87.585938 16.246094 87.289062 C 16.347656 86.589844 16.644531 85.894531 17.042969 85.292969 C 17.441406 84.695312 18.042969 84.199219 18.441406 83.601562 C 18.839844 83.003906 18.9375 82.203125 19.136719 81.507812 C 19.238281 81.308594 19.238281 81.109375 19.4375 81.007812 C 19.636719 80.808594 19.933594 80.808594 20.132812 80.910156 C 20.332031 80.609375 20.433594 80.710938 21.03125 80.910156 Z M 21.03125 80.910156 " fill-opacity="1" fill-rule="nonzero"/><path fill="#000000" d="M 16.347656 77.71875 C 16.347656 78.117188 16.445312 78.914062 16.945312 79.113281 C 17.441406 79.3125 18.140625 78.816406 18.242188 78.714844 C 18.839844 78.21875 18.9375 77.519531 19.039062 77.222656 C 19.136719 76.625 19.039062 75.925781 19.039062 75.328125 C 19.039062 75.027344 19.039062 74.730469 19.039062 74.429688 C 19.039062 74.230469 19.136719 73.933594 19.136719 73.734375 C 19.136719 73.332031 18.738281 73.132812 18.339844 72.835938 C 17.640625 73.832031 16.246094 75.824219 16.347656 77.71875 Z M 16.347656 77.71875 " fill-opacity="1" fill-rule="nonzero"/><path fill="#8c7256" d="M 26.910156 37.050781 C 26.710938 41.738281 26.613281 46.421875 25.019531 50.808594 C 24.519531 52.300781 23.523438 53.699219 23.621094 55.890625 C 23.621094 57.1875 24.023438 58.183594 24.121094 58.78125 C 25.316406 62.667969 24.917969 66.953125 23.921875 75.527344 C 23.820312 76.621094 23.722656 77.421875 23.621094 78.019531 C 23.222656 78.316406 22.328125 78.914062 21.03125 79.214844 C 19.835938 79.511719 18.738281 79.3125 18.242188 79.214844 C 18.242188 77.023438 18.140625 74.730469 18.042969 72.335938 C 18.042969 71.140625 17.941406 69.84375 17.839844 68.648438 C 17.640625 68.050781 17.34375 67.453125 17.144531 66.855469 C 17.242188 66.65625 17.144531 66.457031 17.144531 66.257812 C 16.246094 63.765625 15.648438 61.671875 15.25 59.878906 C 14.253906 55.890625 14.652344 55.890625 13.457031 50.507812 C 12.160156 44.230469 11.460938 43.628906 12.0625 41.738281 C 12.261719 41.140625 11.761719 41.039062 16.84375 35.558594 C 18.539062 33.761719 19.535156 32.867188 22.027344 33.464844 C 23.324219 33.761719 25.714844 34.160156 26.511719 35.359375 C 27.011719 35.757812 26.910156 36.453125 26.910156 37.050781 Z M 26.910156 37.050781 " fill-opacity="1" fill-rule="nonzero"/><path fill="#000000" d="M 18.242188 52.101562 C 17.839844 54.59375 16.546875 57.1875 17.242188 59.679688 C 17.839844 61.671875 18.140625 63.464844 17.640625 65.558594 C 17.542969 65.957031 17.441406 66.457031 17.34375 66.855469 C 17.242188 66.65625 17.144531 66.457031 17.144531 66.257812 C 17.242188 65.859375 17.34375 65.359375 17.441406 64.960938 C 17.640625 63.664062 17.640625 62.269531 17.34375 60.875 C 17.144531 59.976562 16.746094 59.179688 16.746094 58.183594 C 16.746094 56.289062 17.640625 54.296875 17.941406 52.402344 C 18.441406 49.8125 18.539062 47.21875 18.839844 44.628906 C 19.039062 47.121094 18.640625 49.710938 18.242188 52.101562 Z M 18.242188 52.101562 " fill-opacity="1" fill-rule="nonzero"/><path fill="#000000" d="M 22.425781 14.527344 C 22.824219 14.527344 23.125 14.625 23.222656 14.625 C 23.023438 14.925781 22.925781 15.125 22.824219 15.222656 C 22.726562 15.523438 22.625 15.621094 22.625 15.621094 C 22.527344 15.820312 22.625 16.019531 22.625 16.21875 C 22.726562 17.019531 23.023438 17.714844 23.125 18.511719 C 23.125 19.011719 23.125 19.609375 23.023438 20.109375 C 22.925781 21.304688 22.824219 22.5 22.824219 23.695312 C 22.824219 24.195312 22.824219 24.792969 22.726562 25.289062 C 22.625 25.789062 22.527344 26.1875 22.425781 26.289062 C 22.128906 26.984375 21.628906 28.480469 20.730469 31.671875 C 19.734375 29.875 19.636719 28.480469 19.734375 27.582031 C 19.835938 26.984375 19.933594 26.785156 20.234375 25.589844 C 20.53125 24.59375 20.632812 23.597656 20.730469 22.597656 C 20.929688 20.707031 21.132812 18.8125 21.332031 16.917969 C 21.332031 16.820312 21.332031 16.617188 21.429688 16.519531 C 21.53125 16.320312 21.628906 16.121094 21.730469 16.121094 C 21.929688 15.921875 22.027344 15.523438 21.628906 14.425781 C 21.929688 14.625 22.128906 14.527344 22.425781 14.527344 Z M 22.425781 14.527344 " fill-opacity="1" fill-rule="nonzero"/><path fill="#8c7256" d="M 34.1875 24.691406 C 33.492188 22.398438 32.492188 20.207031 31.894531 17.816406 C 31.695312 17.019531 31.496094 16.21875 31 15.722656 C 31 15.621094 30.898438 15.621094 30.898438 15.621094 C 30.300781 15.125 29.800781 15.125 28.707031 14.824219 C 28.007812 14.625 26.910156 14.226562 25.617188 13.628906 C 24.71875 23.398438 23.421875 27.183594 22.226562 28.578125 C 22.027344 28.878906 21.03125 29.976562 20.632812 31.570312 C 20.332031 32.765625 20.53125 33.664062 20.730469 34.558594 C 21.429688 38.25 22.226562 41.636719 23.921875 44.628906 C 24.222656 45.125 24.621094 45.824219 25.417969 46.023438 C 26.113281 46.222656 26.8125 45.824219 27.410156 45.324219 C 28.308594 44.726562 29.703125 43.628906 31.398438 41.539062 C 31.796875 41.4375 32.195312 41.339844 32.59375 41.238281 C 32.59375 37.949219 34.585938 35.058594 35.085938 31.871094 C 35.382812 29.476562 34.886719 26.984375 34.1875 24.691406 Z M 29.800781 34.0625 C 29.402344 34.660156 28.90625 35.160156 28.308594 35.65625 C 27.609375 34.261719 27.511719 33.066406 27.511719 32.167969 C 27.511719 31.671875 27.511719 31.371094 28.007812 28.878906 C 28.507812 26.089844 28.605469 25.488281 28.804688 25.390625 C 28.90625 25.390625 29.003906 25.589844 29.105469 25.890625 C 29.304688 26.488281 29.503906 27.484375 29.503906 28.179688 C 29.601562 29.277344 29.503906 29.378906 29.703125 30.175781 C 30.003906 31.269531 30.300781 31.371094 30.402344 32.070312 C 30.402344 32.765625 30.203125 33.464844 29.800781 34.0625 Z M 29.800781 34.0625 " fill-opacity="1" fill-rule="nonzero"/><path fill="#8c7256" d="M 20.832031 29.875 C 20.832031 29.578125 20.730469 29.277344 20.632812 28.980469 C 20.632812 28.980469 20.632812 28.878906 20.632812 28.878906 C 20.433594 28.082031 20.035156 27.382812 19.835938 26.585938 C 19.636719 25.789062 19.535156 25.089844 19.4375 24.292969 C 19.335938 23 19.238281 21.601562 19.136719 20.308594 C 19.039062 15.820312 17.34375 14.328125 18.339844 12.332031 C 18.738281 11.636719 19.238281 11.238281 19.636719 10.9375 C 19.238281 10.9375 18.738281 10.9375 18.242188 11.238281 C 17.941406 11.4375 17.742188 11.636719 17.742188 11.636719 C 17.640625 11.734375 17.542969 11.835938 17.441406 11.835938 C 17.242188 11.933594 17.042969 12.035156 16.84375 12.132812 C 16.246094 12.433594 15.648438 12.632812 15.152344 12.730469 C 14.453125 12.929688 12.757812 13.230469 11.460938 13.429688 C 11.164062 13.429688 10.964844 13.527344 10.765625 13.628906 C 10.566406 13.730469 10.464844 13.929688 10.367188 14.027344 C 10.367188 14.128906 10.265625 14.128906 10.265625 14.226562 C 10.167969 14.425781 10.066406 14.625 9.96875 14.824219 C 8.371094 19.011719 4.785156 22.199219 2.890625 26.386719 C 2.589844 27.085938 2.292969 27.78125 2.390625 28.578125 C 2.492188 29.875 3.289062 30.773438 3.886719 31.570312 C 4.984375 32.867188 5.679688 32.964844 6.976562 34.261719 C 7.875 35.160156 8.472656 36.054688 8.871094 36.652344 C 8.769531 37.351562 8.570312 38.148438 8.472656 38.945312 C 8.273438 39.644531 8.074219 40.339844 7.875 41.039062 C 7.875 41.039062 7.875 41.140625 7.875 41.140625 C 10.167969 42.933594 12.757812 44.328125 15.550781 45.125 C 15.847656 45.226562 16.148438 45.324219 16.546875 45.425781 C 16.746094 45.425781 16.84375 45.523438 17.042969 45.425781 C 17.242188 45.324219 17.34375 45.125 17.441406 45.027344 C 17.441406 45.027344 17.542969 44.925781 17.542969 44.828125 C 17.542969 44.726562 17.640625 44.628906 17.640625 44.527344 C 18.140625 43.332031 18.640625 42.035156 19.136719 40.839844 C 19.636719 39.742188 20.132812 38.546875 20.332031 37.351562 C 20.332031 37.152344 20.433594 36.953125 20.433594 36.753906 C 20.53125 36.355469 20.53125 35.957031 20.632812 35.558594 C 20.730469 34.460938 20.832031 33.265625 20.832031 32.167969 C 20.832031 31.46875 20.832031 30.671875 20.832031 29.875 Z M 8.570312 29.179688 C 8.371094 28.980469 8.074219 28.78125 8.074219 28.480469 C 8.074219 28.378906 8.171875 28.179688 8.171875 28.082031 C 8.570312 27.285156 9.070312 26.488281 9.46875 25.691406 C 9.867188 25.089844 10.367188 24.492188 10.964844 24.09375 C 11.0625 24.09375 11.0625 24.09375 11.164062 24.09375 C 11.261719 24.195312 11.460938 24.292969 11.460938 24.492188 C 11.460938 24.492188 11.460938 24.59375 11.460938 24.59375 C 11.5625 24.890625 11.460938 25.191406 11.460938 25.390625 C 11.363281 26.386719 11.660156 27.285156 11.859375 28.179688 C 12.0625 29.078125 12.160156 30.175781 11.660156 30.972656 C 11.5625 31.171875 11.261719 31.171875 11.0625 31.070312 C 10.863281 30.972656 10.664062 30.871094 10.566406 30.671875 C 9.96875 30.273438 9.269531 29.777344 8.570312 29.179688 Z M 8.570312 29.179688 " fill-opacity="1" fill-rule="nonzero"/><path fill="#f6e5d3" d="M 11.164062 32.367188 C 11.460938 32.269531 11.761719 32.46875 12.0625 32.566406 C 12.558594 32.765625 13.15625 32.765625 13.65625 32.667969 C 14.253906 32.566406 14.851562 32.367188 15.449219 32.667969 C 15.949219 32.964844 16.246094 33.664062 16.84375 33.664062 C 17.042969 33.664062 17.144531 33.664062 17.34375 33.664062 C 17.542969 33.664062 17.640625 33.664062 17.742188 33.863281 C 17.839844 34.0625 17.640625 34.359375 17.640625 34.460938 C 17.542969 34.660156 17.441406 34.660156 17.34375 34.761719 C 17.441406 34.859375 17.640625 35.160156 17.742188 35.457031 C 17.839844 35.65625 17.941406 36.15625 17.640625 36.355469 C 17.34375 36.554688 16.84375 36.355469 16.84375 36.355469 C 16.84375 36.453125 16.746094 36.753906 16.445312 36.851562 C 16.148438 37.050781 15.75 36.953125 15.75 36.953125 C 15.75 37.351562 15.351562 37.550781 14.949219 37.550781 C 15.152344 37.550781 15.25 37.851562 15.152344 38.050781 C 15.050781 38.25 14.851562 38.347656 14.652344 38.347656 C 14.351562 38.347656 14.152344 38.25 14.054688 38.148438 C 12.757812 37.351562 12.0625 36.953125 11.363281 36.355469 C 9.769531 35.160156 8.871094 35.160156 8.769531 34.558594 C 8.769531 34.261719 9.070312 33.863281 9.667969 33.265625 C 10.265625 32.765625 10.664062 32.46875 11.164062 32.367188 Z M 11.164062 32.367188 " fill-opacity="1" fill-rule="nonzero"/><path fill="#f6e5d3" d="M 59.40625 41.039062 C 59.304688 41.140625 59.105469 41.339844 59.007812 41.238281 C 58.90625 41.238281 58.90625 41.140625 58.90625 41.039062 C 58.707031 40.339844 58.308594 39.742188 57.910156 39.144531 C 57.414062 38.449219 56.714844 37.949219 56.015625 37.351562 C 55.519531 36.953125 55.019531 36.355469 54.523438 35.855469 C 54.324219 35.65625 54.023438 35.457031 53.722656 35.257812 C 51.53125 33.960938 50.335938 31.570312 49.339844 29.277344 C 48.742188 27.980469 48.144531 26.6875 47.542969 25.390625 C 46.945312 27.980469 46.648438 30.574219 46.347656 33.164062 C 44.253906 33.265625 42.261719 33.664062 40.167969 33.664062 C 38.871094 33.664062 37.578125 33.5625 36.28125 33.265625 C 35.78125 31.570312 35.382812 29.976562 34.984375 28.28125 C 34.886719 28.082031 34.886719 27.78125 34.785156 27.582031 C 34.488281 28.378906 33.988281 29.078125 33.988281 29.875 C 33.890625 31.371094 33.191406 32.765625 32.292969 33.960938 C 31.398438 35.160156 30.300781 36.15625 29.304688 37.25 C 28.90625 37.75 28.507812 38.148438 28.40625 38.746094 C 28.308594 39.445312 28.308594 40.140625 28.308594 40.742188 C 28.40625 41.339844 28.507812 41.835938 28.40625 42.433594 C 28.40625 43.03125 28.207031 43.628906 27.710938 43.929688 C 27.113281 44.726562 26.113281 44.527344 25.515625 43.929688 C 25.019531 43.332031 24.820312 42.433594 25.019531 41.636719 C 25.21875 40.839844 25.617188 40.140625 26.015625 39.445312 C 27.011719 37.75 27.511719 35.957031 28.207031 34.160156 C 29.003906 32.070312 30.003906 30.175781 30.898438 28.082031 C 31.796875 26.089844 32.394531 23.996094 32.492188 21.800781 C 32.492188 21.203125 32.59375 20.507812 32.792969 20.007812 C 32.992188 19.410156 33.390625 18.910156 33.988281 18.613281 C 34.386719 18.414062 34.785156 18.3125 35.285156 18.3125 C 35.582031 18.3125 35.882812 18.3125 36.183594 18.3125 C 36.480469 18.3125 36.78125 18.3125 37.078125 18.3125 C 37.875 18.214844 38.671875 17.714844 38.871094 16.917969 C 38.972656 16.519531 38.773438 16.019531 38.574219 15.621094 C 38.375 15.222656 38.074219 14.824219 37.777344 14.425781 C 37.179688 13.429688 36.878906 12.132812 36.980469 10.9375 C 36.980469 9.742188 37.378906 8.546875 38.074219 7.648438 C 39.171875 6.253906 41.363281 5.554688 42.660156 7.148438 C 43.160156 7.847656 43.65625 8.644531 43.957031 9.441406 C 44.253906 10.238281 44.355469 11.238281 44.054688 12.035156 C 44.054688 12.035156 44.054688 12.035156 43.957031 12.433594 C 43.257812 14.527344 43.160156 14.824219 43.160156 15.222656 C 43.058594 15.820312 43.058594 16.320312 43.257812 16.71875 C 43.257812 16.71875 43.359375 16.820312 43.359375 16.917969 C 43.558594 17.21875 43.855469 17.316406 43.957031 17.316406 C 44.652344 17.617188 45.351562 17.816406 45.851562 17.914062 C 46.25 18.015625 46.648438 18.015625 46.847656 18.113281 C 47.34375 18.113281 47.542969 18.113281 47.542969 18.113281 C 48.042969 18.113281 48.34375 18.015625 48.742188 18.214844 C 49.238281 18.414062 49.539062 18.8125 49.738281 19.109375 C 50.535156 20.308594 50.632812 22.300781 50.933594 23.796875 C 51.234375 25.191406 51.929688 26.488281 52.429688 28.378906 C 52.726562 29.378906 53.722656 30.074219 54.324219 30.972656 C 55.019531 31.96875 55.21875 33.164062 55.816406 34.160156 C 56.414062 35.160156 57.414062 35.957031 57.8125 37.050781 C 57.910156 37.449219 58.011719 37.851562 58.210938 38.25 C 58.210938 38.25 58.210938 38.25 58.210938 38.347656 C 58.410156 38.648438 58.808594 38.847656 59.105469 39.144531 C 59.703125 39.644531 59.804688 40.441406 59.40625 41.039062 Z M 59.40625 41.039062 " fill-opacity="1" fill-rule="nonzero"/><path fill="#ad8c65" d="M 68.875 51.703125 C 67.480469 51.902344 66.882812 53.597656 66.683594 55.09375 C 66.582031 56.589844 66.582031 58.183594 65.386719 59.082031 C 64.488281 59.679688 63.292969 59.679688 62.394531 60.375 C 62.296875 60.476562 62.195312 60.476562 62.195312 60.574219 C 62.195312 60.574219 62.195312 60.574219 62.097656 60.675781 C 61.398438 61.472656 61.5 62.570312 61.597656 63.566406 C 61.699219 65.660156 61.300781 67.851562 60.105469 69.644531 C 58.90625 71.339844 56.8125 72.535156 54.722656 72.238281 C 54.023438 72.136719 53.425781 71.9375 52.726562 71.9375 C 51.632812 72.039062 50.832031 73.035156 49.835938 73.632812 C 48.441406 74.53125 46.847656 74.53125 45.152344 74.429688 C 45.054688 74.429688 44.953125 74.429688 44.851562 74.429688 C 44.453125 74.429688 44.054688 74.332031 43.757812 74.332031 C 40.964844 74.03125 38.175781 73.632812 35.484375 73.332031 C 33.191406 73.035156 32.292969 73.035156 31 72.4375 C 30.601562 72.238281 30.203125 71.9375 29.800781 71.738281 C 29.703125 71.738281 29.703125 71.640625 29.601562 71.539062 C 28.707031 70.84375 28.109375 70.042969 27.609375 69.445312 C 27.511719 67.152344 27.609375 65.359375 27.609375 64.261719 C 28.308594 52.5 33.589844 39.445312 34.488281 36.652344 C 34.886719 35.558594 35.183594 34.460938 35.285156 33.363281 C 35.285156 33.265625 35.285156 33.164062 35.285156 33.066406 L 35.285156 32.964844 C 35.285156 31.769531 35.085938 30.671875 34.886719 29.578125 C 34.785156 29.277344 34.785156 28.980469 34.6875 28.578125 C 34.386719 26.585938 33.988281 23.496094 34.488281 20.40625 C 34.585938 19.609375 34.785156 18.910156 34.984375 18.414062 C 35.285156 18.414062 35.582031 18.414062 35.882812 18.414062 C 35.78125 18.910156 35.484375 19.910156 35.285156 21.105469 C 35.085938 22.398438 34.984375 23.496094 34.984375 24.195312 C 35.484375 24.09375 36.082031 23.996094 36.78125 23.996094 C 38.175781 24.09375 39.171875 24.492188 39.671875 24.890625 C 40.167969 24.492188 41.066406 23.996094 42.261719 23.695312 C 43.65625 23.398438 44.753906 23.496094 45.351562 23.695312 C 45.453125 21.800781 45.550781 20.007812 45.75 18.113281 C 46.148438 18.214844 46.546875 18.214844 46.746094 18.3125 C 46.648438 20.207031 46.449219 22.101562 46.347656 24.09375 C 46.546875 24.394531 46.847656 24.792969 47.046875 25.289062 C 47.144531 25.488281 47.144531 25.589844 47.246094 25.789062 C 47.542969 26.6875 47.445312 27.484375 47.445312 27.980469 C 47.34375 29.578125 47.144531 31.46875 46.847656 33.5625 C 46.847656 33.664062 46.847656 33.761719 46.847656 33.863281 C 48.640625 34.160156 50.933594 34.859375 53.625 35.957031 C 53.824219 36.054688 54.023438 36.15625 54.324219 36.253906 C 55.71875 36.851562 57.015625 37.550781 58.109375 38.449219 C 58.609375 38.847656 59.007812 39.246094 59.503906 39.644531 C 61.300781 41.4375 62.496094 43.628906 64.390625 45.324219 C 65.484375 46.222656 66.683594 47.019531 67.679688 48.117188 C 68.773438 48.8125 69.472656 50.410156 68.875 51.703125 Z M 68.875 51.703125 " fill-opacity="1" fill-rule="nonzero"/><path fill="#f6e5d3" d="M 27.609375 39.246094 C 26.511719 39.542969 25.316406 39.742188 24.421875 40.441406 C 24.222656 40.539062 24.023438 40.839844 24.023438 41.039062 C 24.121094 41.238281 24.421875 41.4375 24.621094 41.4375 C 24.917969 41.539062 25.21875 41.4375 25.515625 41.339844 C 25.714844 41.238281 25.816406 41.339844 25.816406 41.339844 C 25.914062 41.4375 25.714844 41.738281 25.617188 41.835938 C 25.417969 42.136719 25.316406 42.136719 25.316406 42.234375 C 25.316406 42.335938 25.316406 42.535156 25.617188 42.734375 C 25.617188 42.734375 25.515625 42.933594 25.617188 43.132812 C 25.714844 43.332031 25.914062 43.429688 26.015625 43.429688 C 26.015625 43.429688 25.914062 43.730469 26.015625 43.929688 C 26.113281 44.128906 26.3125 44.230469 26.3125 44.230469 C 26.3125 44.328125 26.414062 44.429688 26.511719 44.429688 C 27.113281 44.726562 28.207031 43.730469 28.707031 43.230469 C 29.203125 42.632812 29.601562 42.035156 30.203125 41.539062 C 30.699219 41.140625 31.296875 40.839844 31.695312 40.242188 C 31.796875 40.042969 31.796875 39.941406 31.796875 39.84375 C 31.796875 39.644531 31.894531 39.246094 31.597656 38.347656 C 31.296875 37.648438 31.097656 37.152344 30.800781 37.050781 C 30.5 37.050781 30.300781 37.351562 29.902344 37.648438 C 29.304688 38.648438 28.804688 38.945312 27.609375 39.246094 Z M 27.609375 39.246094 " fill-opacity="1" fill-rule="nonzero"/><path fill="#ad8c65" d="M 49.738281 79.015625 C 49.738281 79.3125 49.636719 79.613281 49.539062 79.8125 C 49.140625 79.714844 48.742188 79.714844 48.242188 79.714844 C 47.644531 79.714844 47.144531 79.714844 46.648438 79.714844 C 46.648438 79.414062 46.648438 79.015625 46.648438 78.714844 C 47.34375 78.714844 48.042969 78.714844 48.839844 78.816406 C 49.238281 78.914062 49.4375 78.914062 49.738281 79.015625 Z M 49.738281 79.015625 " fill-opacity="1" fill-rule="nonzero"/><path fill="#8c7256" d="M 11.761719 32.070312 C 10.464844 32.867188 9.46875 34.0625 8.871094 35.359375 C 8.570312 35.058594 8.273438 34.761719 8.074219 34.359375 C 7.972656 34.261719 7.972656 34.160156 7.972656 34.0625 C 7.972656 33.960938 8.074219 33.863281 8.171875 33.761719 C 8.769531 33.164062 9.371094 32.566406 9.96875 31.96875 C 10.167969 31.769531 10.367188 31.671875 10.566406 31.671875 C 10.863281 31.769531 11.660156 32.167969 11.761719 32.070312 Z M 11.761719 32.070312 " fill-opacity="1" fill-rule="nonzero"/><path fill="#8c7256" d="M 31.996094 40.742188 C 32.292969 40.140625 32.59375 39.046875 32.292969 37.949219 C 32.195312 37.351562 31.695312 36.253906 31.199219 36.253906 C 30.800781 36.253906 30.601562 36.851562 30.5 37.050781 C 30.601562 37.449219 30.601562 37.851562 30.800781 38.25 C 31 39.34375 31.496094 40.140625 31.996094 40.742188 Z M 31.996094 40.742188 " fill-opacity="1" fill-rule="nonzero"/><path fill="#000000" d="M 21.730469 28.78125 C 19.535156 31.871094 20.332031 35.457031 21.230469 38.847656 C 21.929688 41.339844 24.121094 48.613281 27.808594 45.324219 C 27.910156 45.226562 27.808594 45.125 27.710938 45.226562 C 26.710938 46.023438 25.417969 46.320312 24.519531 45.324219 C 23.921875 44.628906 23.421875 43.832031 23.023438 43.03125 C 22.226562 41.4375 21.730469 39.644531 21.230469 37.949219 C 20.929688 36.453125 20.53125 34.960938 20.433594 33.464844 C 20.433594 31.769531 21.03125 30.273438 21.730469 28.78125 C 21.828125 28.78125 21.828125 28.78125 21.730469 28.78125 Z M 21.730469 28.78125 " fill-opacity="1" fill-rule="nonzero"/><path fill="#000000" d="M 20.332031 39.144531 C 19.835938 40.839844 19.238281 42.632812 18.339844 44.128906 C 18.042969 44.527344 17.742188 44.828125 17.441406 45.027344 C 17.042969 45.226562 16.644531 45.324219 16.148438 45.226562 C 15.949219 45.226562 15.75 45.226562 15.550781 45.125 C 12.757812 44.328125 10.167969 42.933594 7.875 41.140625 C 7.875 41.140625 7.875 41.039062 7.875 41.039062 C 8.96875 41.738281 9.96875 42.433594 11.0625 43.132812 C 12.558594 44.03125 14.550781 45.027344 16.347656 44.925781 C 16.84375 44.925781 17.144531 44.726562 17.441406 44.527344 C 17.839844 44.230469 18.140625 43.832031 18.339844 43.230469 C 19.136719 41.738281 19.734375 39.941406 20.132812 38.25 C 20.234375 37.75 20.332031 37.152344 20.332031 36.652344 C 20.332031 36.15625 20.332031 35.65625 20.332031 35.160156 C 20.332031 35.058594 20.433594 35.058594 20.433594 35.160156 C 20.433594 35.257812 20.433594 35.359375 20.53125 35.457031 C 20.832031 36.851562 20.632812 38.050781 20.332031 39.144531 Z M 20.332031 39.144531 " fill-opacity="1" fill-rule="nonzero"/><path fill="#000000" d="M 21.828125 33.164062 C 21.828125 33.300781 21.78125 33.421875 21.683594 33.515625 C 21.585938 33.613281 21.46875 33.664062 21.332031 33.664062 C 21.191406 33.664062 21.074219 33.613281 20.976562 33.515625 C 20.878906 33.421875 20.832031 33.300781 20.832031 33.164062 C 20.832031 33.027344 20.878906 32.910156 20.976562 32.8125 C 21.074219 32.714844 21.191406 32.667969 21.332031 32.667969 C 21.46875 32.667969 21.585938 32.714844 21.683594 32.8125 C 21.78125 32.910156 21.828125 33.027344 21.828125 33.164062 Z M 21.828125 33.164062 " fill-opacity="1" fill-rule="nonzero"/><path fill="#000000" d="M 3.289062 30.175781 C 4.785156 31.96875 6.480469 33.664062 8.371094 35.058594 C 8.371094 35.058594 8.472656 35.058594 8.371094 34.960938 C 6.578125 33.464844 4.785156 31.96875 3.289062 30.175781 C 3.289062 30.074219 3.191406 30.175781 3.289062 30.175781 Z M 3.289062 30.175781 " fill-opacity="1" fill-rule="nonzero"/><path fill="#000000" d="M 8.570312 35.257812 C 9.46875 34.160156 10.367188 33.164062 11.363281 32.167969 C 11.363281 32.167969 11.363281 32.070312 11.261719 32.070312 C 10.167969 32.867188 9.171875 33.960938 8.570312 35.257812 C 8.371094 35.257812 8.472656 35.257812 8.570312 35.257812 Z M 8.570312 35.257812 " fill-opacity="1" fill-rule="nonzero"/><path fill="#000000" d="M 11.460938 24.59375 C 11.460938 24.394531 11.261719 24.292969 11.164062 24.195312 C 11.164062 22.699219 11.164062 21.203125 10.964844 19.609375 C 10.765625 17.816406 10.566406 16.121094 10.167969 14.425781 C 10.167969 14.328125 10.265625 14.328125 10.265625 14.226562 C 11.164062 17.617188 11.5625 21.105469 11.460938 24.59375 Z M 11.460938 24.59375 " fill-opacity="1" fill-rule="nonzero"/><path fill="#000000" d="M 20.832031 30.074219 C 20.632812 29.875 20.433594 29.675781 20.234375 29.476562 C 19.238281 28.28125 18.738281 26.6875 18.242188 25.191406 C 17.441406 22.898438 16.746094 20.707031 16.347656 18.3125 C 16.246094 17.617188 15.949219 16.320312 16.148438 15.722656 C 16.246094 15.421875 16.546875 15.421875 16.546875 15.023438 C 16.546875 14.925781 16.246094 14.726562 16.246094 14.625 C 16.148438 14.226562 16.445312 13.628906 16.546875 13.230469 C 16.644531 12.929688 16.644531 12.632812 16.746094 12.332031 C 16.945312 12.234375 17.144531 12.132812 17.242188 12.035156 C 17.144531 12.132812 17.042969 12.332031 17.042969 12.433594 C 16.84375 12.832031 16.644531 13.527344 16.644531 14.027344 C 16.644531 14.527344 16.84375 14.824219 17.042969 15.222656 C 17.042969 15.324219 17.042969 15.421875 17.042969 15.421875 C 16.945312 15.523438 16.84375 15.621094 16.746094 15.722656 C 16.445312 16.121094 16.546875 16.417969 16.546875 16.917969 C 16.644531 17.714844 16.746094 18.511719 16.84375 19.210938 C 17.144531 20.507812 17.441406 21.902344 17.941406 23.097656 C 18.539062 24.992188 19.136719 26.984375 20.132812 28.679688 C 20.433594 29.179688 20.730469 29.578125 21.03125 29.976562 C 21.132812 29.976562 20.929688 30.273438 20.832031 30.074219 Z M 20.832031 30.074219 " fill-opacity="1" fill-rule="nonzero"/><path fill="#000000" d="M 26.910156 17.417969 C 27.011719 17.417969 27.113281 17.417969 27.210938 17.417969 C 27.3125 17.417969 27.410156 17.316406 27.410156 17.21875 C 27.210938 16.121094 26.710938 14.925781 25.914062 14.226562 C 25.816406 14.128906 25.714844 14.226562 25.714844 14.328125 C 26.3125 15.222656 26.8125 16.019531 27.011719 17.117188 C 26.910156 17.117188 26.710938 17.117188 26.613281 17.117188 C 26.511719 17.117188 26.414062 17.21875 26.414062 17.417969 C 26.613281 17.816406 27.113281 18.511719 27.011719 18.910156 C 26.910156 19.011719 26.8125 19.210938 26.710938 19.308594 C 26.414062 19.808594 26.113281 20.40625 25.816406 21.003906 C 25.617188 21.503906 25.316406 22 25.019531 22.5 C 23.621094 25.089844 22.128906 27.582031 20.632812 30.074219 C 20.53125 30.273438 20.832031 30.472656 20.929688 30.273438 C 22.425781 27.683594 24.023438 25.089844 25.417969 22.5 C 25.714844 21.902344 26.015625 21.304688 26.3125 20.707031 C 26.613281 20.207031 26.910156 19.710938 27.210938 19.210938 C 27.710938 18.511719 27.210938 17.914062 26.910156 17.417969 Z M 26.910156 17.417969 " fill-opacity="1" fill-rule="nonzero"/><path fill="#f6e5d3" d="M 28.40625 5.65625 C 28.207031 4.859375 28.007812 3.960938 27.210938 3.261719 C 26.613281 2.664062 25.816406 2.464844 24.121094 2.265625 C 23.523438 2.167969 22.925781 2.167969 22.328125 2.167969 C 21.730469 2.265625 21.132812 2.464844 20.730469 2.964844 C 20.332031 3.363281 20.234375 3.761719 20.132812 4.058594 C 19.535156 5.953125 19.933594 7.347656 19.835938 10.339844 C 19.835938 11.039062 19.734375 11.835938 20.234375 12.632812 C 20.433594 12.929688 20.632812 13.128906 21.132812 13.527344 C 21.828125 14.226562 22.226562 14.527344 22.726562 14.527344 C 22.824219 14.527344 23.125 14.425781 23.722656 14.226562 C 24.71875 13.929688 24.621094 13.828125 24.917969 13.929688 C 25.316406 14.027344 25.714844 14.128906 26.214844 14.128906 C 26.3125 14.128906 26.511719 14.128906 26.613281 14.027344 C 26.710938 13.929688 26.710938 13.828125 26.8125 13.730469 C 26.910156 13.328125 26.910156 13.03125 26.910156 12.632812 C 27.113281 12.632812 27.210938 12.332031 27.210938 12.132812 C 27.3125 11.734375 27.3125 11.4375 27.410156 11.039062 C 27.710938 10.839844 28.109375 11.136719 28.40625 11.039062 C 28.605469 10.9375 28.707031 10.636719 28.707031 10.4375 C 28.707031 10.238281 28.507812 10.039062 28.40625 9.839844 C 28.207031 9.441406 28.007812 8.84375 28.40625 8.546875 C 28.507812 8.445312 28.605469 8.445312 28.707031 8.347656 C 28.804688 8.246094 28.804688 8.046875 28.804688 7.949219 C 28.507812 6.152344 28.40625 5.65625 28.40625 5.65625 Z M 28.40625 5.65625 " fill-opacity="1" fill-rule="nonzero"/><g clip-path="url(#2b8d04cc40)"><path fill="#000000" d="M 27.210938 4.558594 C 26.8125 4.457031 26.3125 4.160156 25.617188 3.5625 C 25.515625 3.960938 25.417969 4.359375 25.21875 4.757812 C 24.820312 5.457031 24.121094 5.855469 23.921875 6.550781 C 23.820312 6.851562 23.820312 7.148438 23.820312 7.449219 C 23.820312 8.046875 23.621094 8.644531 23.421875 9.144531 C 23.222656 9.144531 23.125 9.144531 22.925781 9.144531 C 22.925781 9.144531 22.824219 9.144531 22.824219 9.144531 C 22.824219 9.144531 22.824219 9.042969 22.824219 9.042969 C 22.824219 8.546875 22.824219 8.148438 22.726562 7.648438 C 22.625 7.148438 22.425781 6.75 22.128906 6.453125 C 21.828125 6.152344 21.230469 6.054688 20.832031 6.253906 C 20.632812 6.351562 20.433594 6.652344 20.332031 6.851562 C 20.132812 7.347656 20.132812 7.546875 20.132812 7.847656 C 20.132812 8.246094 20.035156 8.746094 19.835938 9.34375 C 19.734375 8.945312 19.636719 8.445312 19.4375 7.75 C 19.136719 6.152344 18.9375 4.957031 19.535156 3.660156 C 19.636719 3.363281 20.035156 2.464844 20.929688 1.769531 C 21.730469 1.167969 22.625 0.96875 23.023438 0.96875 C 24.121094 0.671875 25.019531 0.96875 25.417969 1.167969 C 25.714844 1.269531 25.914062 1.367188 26.3125 1.566406 C 27.011719 1.867188 27.710938 2.265625 28.308594 2.664062 C 28.605469 2.964844 29.003906 3.164062 29.304688 3.5625 C 29.402344 3.660156 29.503906 3.761719 29.601562 3.960938 C 29.800781 4.257812 29.703125 4.757812 29.402344 5.058594 C 29.203125 5.257812 28.707031 5.65625 28.308594 5.554688 C 28.109375 5.457031 28.109375 5.355469 27.910156 5.058594 C 27.609375 4.65625 27.410156 4.65625 27.210938 4.558594 Z M 27.210938 4.558594 " fill-opacity="1" fill-rule="nonzero"/></g><path fill="#000000" d="M 30.402344 36.554688 C 30.5 37.152344 30.898438 37.75 31.199219 38.25 C 31.398438 38.546875 31.496094 38.847656 31.695312 39.144531 C 31.894531 39.445312 31.996094 39.742188 32.195312 40.042969 C 32.195312 40.042969 32.292969 40.042969 32.292969 40.042969 C 32.09375 39.445312 31.695312 38.847656 31.296875 38.25 C 31.097656 37.648438 30.699219 37.152344 30.402344 36.554688 C 30.5 36.453125 30.402344 36.453125 30.402344 36.554688 Z M 30.402344 36.554688 " fill-opacity="1" fill-rule="nonzero"/><path fill="#000000" d="M 31 15.722656 C 30.402344 17.617188 29.902344 19.507812 29.503906 21.402344 C 29.203125 22.898438 29.105469 24.292969 29.105469 25.789062 C 29.003906 25.488281 28.90625 25.289062 28.804688 25.289062 C 28.804688 22 29.800781 18.613281 30.898438 15.523438 C 30.898438 15.621094 31 15.621094 31 15.722656 Z M 31 15.722656 " fill-opacity="1" fill-rule="nonzero"/><path fill="#000000" d="M 22.226562 35.558594 C 22.625 35.457031 23.023438 35.359375 23.421875 35.160156 C 23.820312 35.058594 24.121094 34.960938 24.519531 34.761719 C 25.21875 34.558594 26.015625 34.359375 26.710938 34.0625 C 26.8125 34.0625 26.710938 33.960938 26.710938 33.960938 C 25.914062 34.0625 25.117188 34.359375 24.421875 34.660156 C 23.621094 34.960938 22.824219 35.160156 22.226562 35.558594 C 22.128906 35.558594 22.128906 35.558594 22.226562 35.558594 Z M 22.226562 35.558594 " fill-opacity="1" fill-rule="nonzero"/><path fill="#000000" d="M 47.144531 33.664062 C 45.054688 34.160156 42.960938 34.261719 40.765625 34.261719 C 39.472656 34.261719 38.074219 34.160156 36.878906 33.863281 C 36.382812 33.761719 35.984375 33.5625 35.484375 33.363281 C 35.484375 33.265625 35.484375 33.164062 35.484375 33.066406 C 36.082031 33.363281 36.679688 33.5625 37.277344 33.761719 C 38.472656 34.0625 39.871094 34.0625 41.164062 34.0625 C 43.160156 34.160156 45.152344 33.863281 47.046875 33.464844 C 47.046875 33.464844 47.046875 33.5625 47.144531 33.664062 C 47.046875 33.664062 47.046875 33.664062 47.144531 33.664062 Z M 47.144531 33.664062 " fill-opacity="1" fill-rule="nonzero"/><path fill="#000000" d="M 37.777344 40.242188 C 37.277344 51.007812 34.6875 61.871094 29.902344 71.640625 C 29.800781 71.640625 29.800781 71.539062 29.703125 71.441406 C 34.1875 61.472656 36.878906 51.105469 37.675781 40.140625 C 37.675781 40.140625 37.777344 40.140625 37.777344 40.242188 Z M 37.777344 40.242188 " fill-opacity="1" fill-rule="nonzero"/><path fill="#000000" d="M 41.066406 55.792969 C 40.867188 60.972656 41.164062 66.355469 42.460938 71.441406 C 42.460938 71.539062 42.5625 71.441406 42.5625 71.441406 C 41.5625 66.257812 40.964844 61.074219 41.164062 55.792969 C 41.265625 55.691406 41.066406 55.691406 41.066406 55.792969 Z M 41.066406 55.792969 " fill-opacity="1" fill-rule="nonzero"/><path fill="#000000" d="M 45.253906 74.429688 C 45.152344 74.429688 45.054688 74.429688 44.953125 74.429688 C 49.039062 65.558594 50.535156 55.992188 49.039062 46.222656 C 49.039062 46.121094 49.140625 46.121094 49.140625 46.222656 C 50.933594 55.589844 49.539062 65.757812 45.253906 74.429688 Z M 45.253906 74.429688 " fill-opacity="1" fill-rule="nonzero"/><path fill="#000000" d="M 62.394531 60.375 C 62.296875 60.476562 62.195312 60.476562 62.195312 60.574219 C 58.90625 56.988281 56.613281 52.402344 54.621094 48.117188 C 54.523438 48.015625 54.722656 47.917969 54.820312 48.015625 C 57.015625 52.402344 59.304688 56.6875 62.394531 60.375 Z M 62.394531 60.375 " fill-opacity="1" fill-rule="nonzero"/><path fill="#101825" d="M 39.074219 7.546875 C 38.972656 7.847656 39.074219 8.148438 39.074219 8.445312 C 39.074219 8.945312 38.773438 9.34375 38.273438 9.542969 C 37.675781 9.839844 37.378906 10.4375 37.378906 11.039062 C 37.378906 11.636719 37.578125 12.234375 37.777344 12.832031 C 37.976562 13.429688 38.175781 14.027344 37.976562 14.625 C 37.875 15.125 37.578125 15.523438 37.476562 16.019531 C 37.277344 16.519531 37.378906 17.117188 37.277344 17.714844 C 37.179688 18.3125 37.078125 18.8125 36.679688 19.210938 C 36.28125 19.609375 35.582031 19.710938 35.183594 19.410156 C 35.085938 19.308594 34.984375 19.210938 34.886719 19.109375 C 34.488281 18.8125 33.988281 19.109375 33.492188 19.308594 C 33.292969 19.410156 33.09375 19.308594 32.992188 19.210938 C 32.890625 19.109375 33.09375 18.910156 33.09375 18.8125 C 32.992188 17.714844 32.992188 16.519531 33.589844 15.523438 C 34.488281 14.128906 34.585938 12.332031 34.984375 10.636719 C 35.382812 8.746094 36.183594 6.949219 37.378906 5.355469 C 37.875 4.457031 38.671875 3.660156 39.671875 3.660156 C 40.070312 3.660156 40.269531 3.859375 40.269531 3.859375 C 40.46875 3.960938 40.566406 4.160156 40.566406 4.257812 C 40.46875 5.058594 40.367188 5.953125 40.167969 6.75 C 40.070312 6.75 39.769531 6.75 39.371094 6.949219 C 39.472656 7.050781 39.074219 7.25 39.074219 7.546875 Z M 39.074219 7.546875 " fill-opacity="1" fill-rule="nonzero"/><path fill="#101825" d="M 41.464844 6.550781 C 41.761719 6.652344 42.0625 6.851562 42.261719 7.25 C 42.460938 7.546875 42.660156 7.847656 42.859375 8.148438 C 43.058594 8.347656 43.257812 8.546875 43.359375 8.746094 C 43.457031 8.945312 43.558594 9.242188 43.558594 9.441406 C 43.757812 10.238281 43.855469 11.039062 43.558594 11.734375 C 43.359375 12.332031 42.960938 12.730469 42.859375 13.328125 C 42.761719 13.929688 42.960938 14.527344 42.960938 15.222656 C 42.960938 15.523438 42.859375 15.820312 42.859375 16.121094 C 42.761719 17.019531 42.761719 17.914062 42.859375 18.710938 C 42.859375 18.910156 42.960938 19.210938 43.058594 19.410156 C 43.160156 19.609375 43.359375 19.808594 43.65625 19.808594 C 44.054688 19.808594 44.253906 19.507812 44.554688 19.308594 C 45.152344 19.109375 45.949219 19.609375 46.449219 19.308594 C 46.746094 19.109375 46.746094 18.710938 47.046875 18.511719 C 47.246094 18.3125 47.542969 18.214844 47.742188 18.015625 C 48.042969 17.714844 48.144531 17.117188 47.84375 16.820312 C 47.742188 16.71875 47.644531 16.519531 47.445312 16.417969 C 46.847656 15.820312 46.648438 14.925781 46.546875 14.027344 C 46.449219 13.128906 46.546875 12.234375 46.347656 11.4375 C 46.25 11.039062 46.148438 10.738281 46.050781 10.4375 C 45.75 9.640625 45.550781 8.84375 45.253906 8.148438 C 44.953125 7.148438 44.554688 6.152344 43.957031 5.355469 C 43.359375 4.558594 42.261719 3.960938 41.265625 4.058594 C 41.066406 4.058594 40.765625 4.160156 40.667969 4.359375 C 40.566406 4.457031 40.566406 4.558594 40.566406 4.558594 C 40.566406 4.859375 40.46875 5.65625 40.269531 6.851562 C 40.46875 6.652344 40.964844 6.351562 41.464844 6.550781 Z M 41.464844 6.550781 " fill-opacity="1" fill-rule="nonzero"/><path fill="#000000" d="M 1.59375 24.394531 C 0 27.085938 0.699219 30.273438 1.894531 32.964844 C 1.894531 33.066406 2.09375 32.964844 2.09375 32.867188 C 1.195312 30.175781 0.300781 27.085938 1.792969 24.394531 C 1.792969 24.394531 1.59375 24.292969 1.59375 24.394531 Z M 1.59375 24.394531 " fill-opacity="1" fill-rule="nonzero"/><g clip-path="url(#ce0b93217b)"><path fill="#000000" d="M 19.535156 0.570312 C 18.042969 2.464844 17.34375 5.15625 17.839844 7.546875 C 17.839844 7.648438 17.941406 7.648438 17.941406 7.546875 C 17.742188 5.058594 18.140625 2.664062 19.636719 0.671875 C 19.734375 0.570312 19.535156 0.472656 19.535156 0.570312 Z M 19.535156 0.570312 " fill-opacity="1" fill-rule="nonzero"/></g><path fill="#000000" d="M 45.75 5.753906 C 46.148438 6.75 46.449219 7.75 46.746094 8.84375 C 47.046875 9.839844 47.246094 10.9375 47.445312 11.933594 C 47.445312 12.035156 47.542969 12.035156 47.542969 11.933594 C 47.445312 10.839844 47.144531 9.839844 46.847656 8.746094 C 46.546875 7.75 46.25 6.652344 45.75 5.65625 C 45.851562 5.65625 45.652344 5.753906 45.75 5.753906 Z M 45.75 5.753906 " fill-opacity="1" fill-rule="nonzero"/><path fill="#000000" d="M 52.328125 23.894531 C 52.03125 25.191406 52.925781 26.488281 53.625 27.484375 C 54.324219 28.578125 55.21875 29.578125 56.316406 30.375 C 56.414062 30.375 56.414062 30.375 56.414062 30.273438 C 55.519531 29.476562 54.722656 28.480469 54.023438 27.484375 C 53.722656 26.984375 53.425781 26.488281 53.125 25.988281 C 52.828125 25.289062 52.527344 24.59375 52.628906 23.894531 C 52.527344 23.796875 52.328125 23.796875 52.328125 23.894531 Z M 52.328125 23.894531 " fill-opacity="1" fill-rule="nonzero"/><path fill="#000000" d="M 67.480469 46.023438 C 69.074219 47.617188 70.867188 49.609375 70.371094 52.101562 C 70.371094 52.203125 70.46875 52.203125 70.46875 52.101562 C 71.167969 49.609375 69.175781 47.519531 67.578125 45.921875 C 67.480469 45.824219 67.378906 45.921875 67.480469 46.023438 Z M 67.480469 46.023438 " fill-opacity="1" fill-rule="nonzero"/><path fill="#000000" d="M 55.617188 74.332031 C 58.707031 73.433594 61.5 71.339844 62.996094 68.449219 C 62.996094 68.351562 62.996094 68.351562 62.894531 68.449219 C 61.199219 71.140625 58.707031 73.234375 55.617188 74.230469 C 55.519531 74.230469 55.519531 74.429688 55.617188 74.332031 Z M 55.617188 74.332031 " fill-opacity="1" fill-rule="nonzero"/><path fill="#000000" d="M 38.472656 77.519531 C 38.871094 79.3125 38.671875 81.007812 38.273438 82.804688 C 38.273438 82.902344 38.375 82.902344 38.375 82.804688 C 38.972656 81.109375 38.972656 79.214844 38.574219 77.519531 C 38.574219 77.421875 38.472656 77.421875 38.472656 77.519531 Z M 38.472656 77.519531 " fill-opacity="1" fill-rule="nonzero"/><path fill="#000000" d="M 25.316406 53.699219 C 24.621094 54.792969 24.421875 56.089844 24.820312 57.285156 C 24.820312 57.386719 24.917969 57.285156 24.917969 57.285156 C 24.621094 56.089844 24.820312 54.792969 25.417969 53.796875 C 25.515625 53.699219 25.417969 53.597656 25.316406 53.699219 Z M 25.316406 53.699219 " fill-opacity="1" fill-rule="nonzero"/><path fill="#000000" d="M 25.117188 70.441406 C 25.316406 72.734375 25.316406 75.027344 25.316406 77.320312 C 25.316406 77.421875 25.417969 77.421875 25.515625 77.320312 C 25.714844 75.027344 25.617188 72.734375 25.316406 70.441406 C 25.21875 70.34375 25.117188 70.34375 25.117188 70.441406 Z M 25.117188 70.441406 " fill-opacity="1" fill-rule="nonzero"/><path fill="#000000" d="M 29.203125 73.332031 C 30.898438 74.332031 32.890625 74.929688 34.886719 74.828125 C 34.984375 74.828125 34.984375 74.730469 34.886719 74.730469 C 33.890625 74.628906 32.992188 74.53125 31.996094 74.332031 C 31.097656 74.03125 30.203125 73.734375 29.304688 73.234375 C 29.203125 73.132812 29.105469 73.332031 29.203125 73.332031 Z M 29.203125 73.332031 " fill-opacity="1" fill-rule="nonzero"/><path fill="#000000" d="M 11.363281 47.71875 C 12.0625 51.304688 12.757812 54.894531 13.65625 58.480469 C 13.65625 58.582031 13.753906 58.480469 13.753906 58.480469 C 13.15625 54.894531 12.359375 51.304688 11.5625 47.71875 C 11.5625 47.617188 11.363281 47.617188 11.363281 47.71875 Z M 11.363281 47.71875 " fill-opacity="1" fill-rule="nonzero"/></svg>