<svg width="702" height="204" viewBox="0 0 702 204" fill="none" xmlns="http://www.w3.org/2000/svg">
<path d="M215.55 42.2979C215.647 41.7119 215.721 41.1504 215.77 40.6133C215.867 40.0273 215.916 39.4658 215.916 38.9287C215.916 36.8779 215.501 34.9248 214.671 33.0693C213.89 31.165 212.718 29.5049 211.155 28.0889C209.642 26.624 207.786 25.4766 205.589 24.6465C203.392 23.7676 200.926 23.3281 198.191 23.3281C195.311 23.3281 192.259 23.9629 189.036 25.2324C185.813 26.4531 182.591 28.626 179.368 31.751C176.243 34.7783 173.021 38.6846 169.7 43.4697C166.429 48.2061 163.157 53.4551 159.886 59.2168C156.663 64.9297 153.489 70.96 150.364 77.3076C147.288 83.6553 144.358 89.9053 141.575 96.0576C138.792 102.21 136.229 108.094 133.885 113.709C131.541 119.324 129.515 124.28 127.806 128.577C126.097 132.825 124.754 136.243 123.777 138.831C122.85 141.419 122.361 142.762 122.312 142.859L118.577 141.907C117.991 138.147 117.454 134.754 116.966 131.727C116.526 128.699 116.136 125.794 115.794 123.011C115.501 120.228 115.281 117.469 115.135 114.734C114.988 112 114.915 109.07 114.915 105.945C114.915 103.406 115.013 100.501 115.208 97.2295C115.452 93.958 115.77 90.4912 116.16 86.8291C116.6 83.167 117.088 79.4072 117.625 75.5498C118.211 71.6924 118.821 67.9082 119.456 64.1973C120.14 60.4863 120.848 56.9707 121.58 53.6504C122.312 50.2812 123.069 47.2539 123.851 44.5684C119.7 50.7695 115.892 57.0195 112.425 63.3184C109.007 69.6172 105.76 75.7939 102.684 81.8486C99.6074 87.9033 96.6289 93.7871 93.748 99.5C90.8672 105.164 87.9131 110.486 84.8857 115.467C81.8584 120.447 78.6602 125.013 75.291 129.163C71.9219 133.313 68.2109 136.854 64.1582 139.783C60.1543 142.762 55.7109 145.057 50.8281 146.668C45.9453 148.328 40.4766 149.158 34.4219 149.158C29.832 149.158 25.4863 148.523 21.3848 147.254C17.332 145.984 13.7676 144.202 10.6914 141.907C7.61523 139.612 5.19824 136.829 3.44043 133.558C1.63379 130.286 0.730469 126.673 0.730469 122.718C0.730469 118.226 1.70703 114.222 3.66016 110.706C5.56445 107.142 8.10352 104.163 11.2773 101.771C14.4512 99.3291 18.1133 97.4736 22.2637 96.2041C26.4141 94.9346 30.7109 94.2998 35.1543 94.2998C37.6934 94.2998 40.2568 94.4707 42.8447 94.8125C45.4814 95.1543 48.0449 95.7158 50.5352 96.4971C53.0742 97.2783 55.5156 98.3281 57.8594 99.6465C60.2031 100.916 62.376 102.503 64.3779 104.407L61.5215 106.971C61.5215 106.971 60.9844 106.531 59.9102 105.652C58.8848 104.725 57.3223 103.724 55.2227 102.649C53.1719 101.575 50.5596 100.599 47.3857 99.7197C44.2119 98.792 40.501 98.3281 36.2529 98.3281C32.835 98.3281 29.5146 98.8164 26.292 99.793C23.0693 100.77 20.1885 102.21 17.6494 104.114C15.1592 106.019 13.1572 108.362 11.6436 111.146C10.1299 113.929 9.37305 117.151 9.37305 120.813C9.37305 124.573 10.1787 127.942 11.79 130.921C13.4014 133.851 15.5498 136.316 18.2354 138.318C20.9209 140.369 23.9727 141.907 27.3906 142.933C30.8086 144.007 34.3242 144.544 37.9375 144.544C43.3086 144.544 48.167 143.641 52.5127 141.834C56.9072 140.076 60.96 137.586 64.6709 134.363C68.4307 131.141 71.9219 127.283 75.1445 122.791C78.416 118.299 81.5898 113.343 84.666 107.923C87.7422 102.503 90.8428 96.7168 93.9678 90.5645C97.0928 84.3633 100.389 77.9668 103.855 71.375C107.322 64.7832 111.058 58.0693 115.062 51.2334C119.065 44.3975 123.484 37.6104 128.318 30.8721L131.688 32.6299C130.076 37.3662 128.782 42.3711 127.806 47.6445C126.829 52.8691 126.072 58.2646 125.535 63.8311C125.047 69.3486 124.705 74.9395 124.51 80.6035C124.363 86.2676 124.266 91.8584 124.217 97.376C124.168 102.894 124.119 108.289 124.07 113.562C124.07 118.787 123.948 123.743 123.704 128.431C125.364 124.183 127.366 119.227 129.71 113.562C132.054 107.898 134.642 101.917 137.474 95.6182C140.306 89.3193 143.309 82.9229 146.482 76.4287C149.705 69.8857 152.977 63.6357 156.297 57.6787C159.666 51.7217 163.06 46.2773 166.478 41.3457C169.944 36.3652 173.338 32.2637 176.658 29.041C180.32 25.5254 183.982 23.0596 187.645 21.6436C191.355 20.1787 194.896 19.4463 198.265 19.4463C201.585 19.4463 204.563 20.0078 207.2 21.1309C209.886 22.2051 212.156 23.6455 214.012 25.4521C215.867 27.21 217.283 29.2607 218.26 31.6045C219.236 33.9482 219.725 36.3652 219.725 38.8555C219.725 40.2227 219.578 41.6387 219.285 43.1035L215.55 42.2979ZM197.312 117.078C197.508 117.127 197.703 117.151 197.898 117.151C198.094 117.151 198.313 117.151 198.558 117.151C199.925 117.151 201.17 117.029 202.293 116.785C203.416 116.492 204.441 116.053 205.369 115.467C206.346 114.881 207.273 114.124 208.152 113.196C209.031 112.22 209.886 111.048 210.716 109.681L213.353 111.731C211.009 115.052 208.592 117.371 206.102 118.689C203.611 120.008 200.975 120.667 198.191 120.667C197.166 120.667 196.263 120.569 195.481 120.374C193.382 123.89 191.136 126.893 188.743 129.383C186.351 131.824 183.909 133.826 181.419 135.389C178.929 136.951 176.463 138.074 174.021 138.758C171.58 139.49 169.31 139.856 167.21 139.856C165.062 139.856 163.06 139.466 161.204 138.685C159.397 137.952 157.835 136.878 156.517 135.462C155.198 134.046 154.173 132.361 153.44 130.408C152.708 128.455 152.342 126.258 152.342 123.816C152.342 121.375 152.732 118.885 153.514 116.346C154.295 113.807 155.345 111.292 156.663 108.802C158.03 106.312 159.617 103.919 161.424 101.624C163.23 99.2803 165.184 97.1074 167.283 95.1055C169.383 93.1035 171.556 91.2969 173.802 89.6855C176.048 88.0742 178.294 86.7559 180.54 85.7305L182.884 88.8066C180.296 90.6621 177.659 93.0059 174.974 95.8379C172.337 98.6699 169.92 101.771 167.723 105.14C165.574 108.509 163.792 112.024 162.376 115.687C161.009 119.3 160.325 122.815 160.325 126.233C160.325 129.31 161.009 131.702 162.376 133.411C163.743 135.071 165.818 135.901 168.602 135.901C170.75 135.901 172.874 135.462 174.974 134.583C177.073 133.704 179.124 132.508 181.126 130.994C183.128 129.48 185.057 127.698 186.912 125.647C188.768 123.548 190.525 121.326 192.186 118.982C190.77 118.152 189.524 117.054 188.45 115.687C187.376 114.271 186.473 112.684 185.74 110.926C185.008 109.119 184.446 107.19 184.056 105.14C183.714 103.089 183.543 100.989 183.543 98.8408C183.543 96.6924 183.812 94.666 184.349 92.7617C184.886 90.8574 185.618 89.1973 186.546 87.7812C187.522 86.3164 188.646 85.1689 189.915 84.3389C191.185 83.5088 192.576 83.0938 194.09 83.0938C195.457 83.0938 196.678 83.46 197.752 84.1924C198.826 84.876 199.729 85.8525 200.462 87.1221C201.194 88.3428 201.756 89.8076 202.146 91.5166C202.537 93.2256 202.732 95.0566 202.732 97.0098C202.732 98.4746 202.61 100.086 202.366 101.844C202.122 103.602 201.756 105.384 201.268 107.19C200.828 108.948 200.267 110.706 199.583 112.464C198.948 114.173 198.191 115.711 197.312 117.078ZM187.352 98.8408C187.352 100.257 187.474 101.795 187.718 103.455C187.962 105.115 188.353 106.727 188.89 108.289C189.427 109.852 190.11 111.316 190.94 112.684C191.771 114.002 192.796 115.052 194.017 115.833C194.896 114.124 195.628 112.391 196.214 110.633C196.849 108.826 197.361 107.093 197.752 105.433C198.191 103.772 198.484 102.234 198.631 100.818C198.826 99.3535 198.924 98.084 198.924 97.0098C198.924 95.5449 198.802 94.2021 198.558 92.9814C198.313 91.7607 197.972 90.7109 197.532 89.832C197.142 88.9043 196.629 88.1963 195.994 87.708C195.408 87.1709 194.749 86.9023 194.017 86.9023C193.04 86.9023 192.137 87.2441 191.307 87.9277C190.477 88.5625 189.769 89.4414 189.183 90.5645C188.597 91.6387 188.133 92.9082 187.791 94.373C187.498 95.7891 187.352 97.2783 187.352 98.8408ZM257.005 111.731C256.272 112.806 255.394 114.271 254.368 116.126C253.392 117.933 252.244 119.91 250.926 122.059C249.607 124.158 248.143 126.307 246.531 128.504C244.969 130.701 243.235 132.679 241.331 134.437C239.476 136.194 237.449 137.635 235.252 138.758C233.055 139.881 230.711 140.442 228.221 140.442C226.854 140.442 225.56 140.223 224.339 139.783C223.118 139.393 222.044 138.758 221.116 137.879C220.188 137 219.456 135.926 218.919 134.656C218.382 133.338 218.113 131.8 218.113 130.042C218.113 127.649 218.577 125.159 219.505 122.571C220.481 119.935 221.604 117.396 222.874 114.954C224.144 112.513 225.413 110.291 226.683 108.289C227.952 106.238 228.88 104.603 229.466 103.382C230.052 102.161 230.345 101.111 230.345 100.232C230.345 99.5977 230.125 99.0361 229.686 98.5479C229.295 98.0596 228.782 97.5957 228.147 97.1562C227.562 96.668 226.927 96.1797 226.243 95.6914C225.608 95.1543 225.071 94.5195 224.632 93.7871C223.411 95.7402 222.166 97.7178 220.896 99.7197C219.773 101.429 218.553 103.357 217.234 105.506C215.916 107.605 214.646 109.681 213.426 111.731L210.789 109.681L226.463 85.1445L228.587 86.2432C228.489 86.5361 228.318 87 228.074 87.6348C227.879 88.2695 227.781 88.9531 227.781 89.6855C227.781 90.2227 227.854 90.7598 228.001 91.2969C228.196 91.7852 228.562 92.249 229.1 92.6885C231.053 94.4463 232.591 95.8135 233.714 96.79C234.837 97.7178 235.643 98.4746 236.131 99.0605C236.668 99.5977 236.985 100.062 237.083 100.452C237.229 100.794 237.303 101.258 237.303 101.844C237.303 102.43 237.205 103.138 237.01 103.968C236.814 104.798 236.473 105.799 235.984 106.971C235.545 108.143 234.91 109.534 234.08 111.146C233.299 112.708 232.298 114.539 231.077 116.639C230.345 117.908 229.612 119.202 228.88 120.521C228.196 121.79 227.562 123.084 226.976 124.402C226.438 125.721 225.999 127.039 225.657 128.357C225.315 129.676 225.145 130.945 225.145 132.166C225.145 133.094 225.267 133.851 225.511 134.437C225.804 134.974 226.17 135.389 226.609 135.682C227.049 135.975 227.513 136.17 228.001 136.268C228.538 136.365 229.051 136.414 229.539 136.414C231.15 136.414 232.737 135.95 234.3 135.022C235.911 134.046 237.474 132.801 238.987 131.287C240.55 129.773 242.039 128.064 243.455 126.16C244.92 124.207 246.312 122.229 247.63 120.228C248.948 118.226 250.169 116.321 251.292 114.515C252.415 112.659 253.416 111.048 254.295 109.681L257.005 111.731ZM287.181 72.0342C287.181 73.0107 286.937 74.0361 286.448 75.1104C285.96 76.1357 285.325 77.0635 284.544 77.8936C283.812 78.7236 282.981 79.4072 282.054 79.9443C281.126 80.4814 280.198 80.75 279.271 80.75C278.44 80.75 277.806 80.457 277.366 79.8711C276.927 79.2363 276.707 78.4795 276.707 77.6006C276.707 76.8193 276.854 75.8916 277.146 74.8174C277.439 73.7432 277.879 72.7422 278.465 71.8145C279.051 70.8379 279.759 70.0078 280.589 69.3242C281.419 68.6406 282.371 68.2988 283.445 68.2988C284.471 68.2988 285.35 68.6895 286.082 69.4707C286.814 70.252 287.181 71.1064 287.181 72.0342ZM273.484 88.2939C272.85 89.5635 271.946 91.248 270.774 93.3477C269.651 95.3984 268.431 97.6689 267.112 100.159C265.794 102.601 264.451 105.188 263.084 107.923C261.717 110.608 260.472 113.245 259.349 115.833C258.274 118.372 257.396 120.765 256.712 123.011C256.028 125.257 255.687 127.161 255.687 128.724C255.687 130.14 255.979 131.116 256.565 131.653C257.151 132.142 257.981 132.386 259.056 132.386C261.058 132.386 263.011 131.727 264.915 130.408C266.819 129.09 268.699 127.381 270.555 125.281C272.459 123.133 274.314 120.691 276.121 117.957C277.928 115.223 279.734 112.464 281.541 109.681L284.178 111.731C282.762 114.271 281.15 116.98 279.344 119.861C277.586 122.742 275.608 125.428 273.411 127.918C271.214 130.359 268.797 132.386 266.16 133.997C263.523 135.608 260.643 136.414 257.518 136.414C254.588 136.414 252.342 135.535 250.779 133.777C249.217 132.02 248.436 129.749 248.436 126.966C248.436 123.694 249.192 120.276 250.706 116.712C252.22 113.147 254.1 109.632 256.346 106.165C258.641 102.649 261.106 99.2803 263.743 96.0576C266.429 92.835 268.895 89.9053 271.141 87.2686L273.484 88.2939ZM412.645 115.027C414.988 114.588 417.356 114.368 419.749 114.368C422.776 114.368 425.73 114.808 428.611 115.687C431.492 116.565 434.056 117.835 436.302 119.495C438.597 121.106 440.428 123.108 441.795 125.501C443.162 127.894 443.846 130.604 443.846 133.631C443.846 136.316 443.235 138.758 442.015 140.955C440.843 143.152 439.207 145.032 437.107 146.595C435.008 148.206 432.518 149.427 429.637 150.257C426.756 151.136 423.631 151.575 420.262 151.575C416.355 151.575 412.596 151.136 408.982 150.257C405.418 149.427 402 148.255 398.729 146.741C395.506 145.228 392.405 143.396 389.427 141.248C386.497 139.148 383.763 136.805 381.224 134.217C377.659 135.877 373.899 137.171 369.944 138.099C366.038 139.075 361.961 139.563 357.713 139.563C352.488 139.563 348.021 139.002 344.31 137.879C340.599 136.805 337.571 135.34 335.228 133.484C332.884 131.58 331.15 129.383 330.027 126.893C328.953 124.402 328.416 121.741 328.416 118.909C328.416 115.247 329.246 112 330.906 109.168C332.615 106.287 334.886 103.748 337.718 101.551C340.55 99.3047 343.821 97.3027 347.532 95.5449C351.243 93.7871 355.125 92.1514 359.178 90.6377C358.885 88.3916 358.738 86.1699 358.738 83.9727C358.738 78.9434 359.666 74.3779 361.521 70.2764C363.377 66.1748 365.794 62.6836 368.772 59.8027C371.8 56.9219 375.169 54.7002 378.88 53.1377C382.64 51.5264 386.399 50.7207 390.159 50.7207C392.552 50.7207 394.725 51.0625 396.678 51.7461C398.631 52.4297 400.291 53.3818 401.658 54.6025C403.025 55.7744 404.075 57.166 404.808 58.7773C405.589 60.3887 405.979 62.0977 405.979 63.9043C405.979 66.4434 405.442 68.7383 404.368 70.7891C403.343 72.791 401.902 74.6221 400.047 76.2822C398.24 77.9424 396.092 79.4561 393.602 80.8232C391.16 82.1904 388.499 83.46 385.618 84.6318C382.786 85.8037 379.832 86.9512 376.756 88.0742C373.68 89.1484 370.604 90.2471 367.527 91.3701C368.113 94.1045 368.919 97.0098 369.944 100.086C371.019 103.162 372.288 106.287 373.753 109.461C375.218 112.586 376.878 115.711 378.733 118.836C380.638 121.961 382.688 124.939 384.886 127.771C387.669 126.111 390.208 124.231 392.503 122.132C394.847 120.032 396.849 117.811 398.509 115.467C400.218 113.074 401.536 110.608 402.464 108.069C403.44 105.53 403.929 102.967 403.929 100.379C403.929 98.4258 403.758 96.8633 403.416 95.6914C403.074 94.5195 402.879 93.7627 402.83 93.4209L406.565 92.3955C406.761 92.9326 407.005 93.9092 407.298 95.3252C407.64 96.7412 407.811 98.4502 407.811 100.452C407.811 103.138 407.322 105.872 406.346 108.655C405.369 111.438 403.978 114.148 402.171 116.785C400.413 119.422 398.265 121.937 395.726 124.329C393.235 126.722 390.452 128.895 387.376 130.848C389.524 133.387 391.795 135.73 394.188 137.879C396.629 140.027 399.168 141.883 401.805 143.445C404.441 145.008 407.151 146.229 409.935 147.107C412.767 147.986 415.672 148.426 418.65 148.426C421.092 148.426 423.436 148.108 425.682 147.474C427.928 146.839 429.905 145.862 431.614 144.544C433.323 143.274 434.69 141.614 435.716 139.563C436.741 137.562 437.254 135.169 437.254 132.386C437.254 129.896 436.741 127.723 435.716 125.867C434.69 123.963 433.323 122.376 431.614 121.106C429.905 119.788 427.952 118.812 425.755 118.177C423.606 117.493 421.36 117.151 419.017 117.151C417.991 117.151 416.99 117.2 416.014 117.298C415.086 117.396 414.207 117.518 413.377 117.664L412.645 115.027ZM359.764 94.373C356.688 95.6914 353.782 97.1074 351.048 98.6211C348.362 100.135 346.019 101.844 344.017 103.748C342.015 105.604 340.428 107.703 339.256 110.047C338.084 112.391 337.498 115.027 337.498 117.957C337.498 120.447 337.889 122.767 338.67 124.915C339.5 127.015 340.77 128.87 342.479 130.481C344.236 132.044 346.458 133.265 349.144 134.144C351.829 135.022 355.052 135.462 358.812 135.462C362.132 135.462 365.452 135.096 368.772 134.363C372.093 133.631 375.291 132.581 378.367 131.214C375.926 128.528 373.704 125.672 371.702 122.645C369.7 119.617 367.918 116.541 366.355 113.416C364.793 110.242 363.45 107.068 362.327 103.895C361.204 100.672 360.35 97.498 359.764 94.373ZM401.878 63.9775C401.878 62.8545 401.634 61.7314 401.146 60.6084C400.706 59.4854 399.998 58.4844 399.021 57.6055C398.094 56.7266 396.873 56.0186 395.359 55.4814C393.895 54.9443 392.161 54.6758 390.159 54.6758C387.425 54.6758 384.642 55.2129 381.81 56.2871C379.026 57.3125 376.487 58.9727 374.192 61.2676C371.946 63.5137 370.091 66.4434 368.626 70.0566C367.21 73.6211 366.502 77.918 366.502 82.9473C366.502 83.7285 366.526 84.5342 366.575 85.3643C366.624 86.1943 366.722 87.0488 366.868 87.9277C371.312 86.3652 375.633 84.8271 379.832 83.3135C384.031 81.751 387.767 80.0664 391.038 78.2598C394.31 76.4043 396.922 74.3291 398.875 72.0342C400.877 69.7393 401.878 67.0537 401.878 63.9775ZM506.321 95.6182C509.69 95.2275 512.962 94.7881 516.136 94.2998C519.31 93.8115 522.386 93.25 525.364 92.6152C525.608 86.6094 526.609 80.8477 528.367 75.3301C530.125 69.8125 532.42 64.6855 535.252 59.9492C538.084 55.1641 541.331 50.8428 544.993 46.9854C548.655 43.0791 552.488 39.7588 556.492 37.0244C560.545 34.2412 564.646 32.0928 568.797 30.5791C572.996 29.0654 577.024 28.3086 580.882 28.3086C586.058 28.3086 589.988 29.4072 592.674 31.6045C595.408 33.7529 596.775 36.9756 596.775 41.2725C596.775 46.3018 595.311 51.4043 592.381 56.5801C589.451 61.7559 585.276 66.7363 579.856 71.5215C574.485 76.2578 567.967 80.6279 560.301 84.6318C552.684 88.5869 544.163 91.8584 534.739 94.4463C534.739 97.5225 535.105 100.477 535.838 103.309C536.619 106.092 537.767 108.582 539.28 110.779C540.794 112.928 542.649 114.637 544.847 115.906C547.093 117.176 549.681 117.811 552.61 117.811C556.028 117.811 559.593 117.005 563.304 115.394C567.015 113.782 570.652 111.731 574.217 109.241C577.781 106.751 581.126 103.992 584.251 100.965C587.376 97.8887 590.086 94.8857 592.381 91.9561C596.678 86.4385 600.145 82.3125 602.781 79.5781C605.418 76.8438 606.834 75.3789 607.029 75.1836L609.666 77.9668C605.174 82.3125 601.194 86.9512 597.728 91.8828C594.31 96.8145 591.16 101.819 588.279 106.897C585.398 111.927 582.688 116.956 580.149 121.985C577.61 127.015 574.998 131.824 572.312 136.414C569.627 141.004 566.746 145.252 563.67 149.158C560.643 153.113 557.176 156.531 553.27 159.412C549.363 162.293 544.92 164.539 539.939 166.15C535.008 167.811 529.295 168.641 522.801 168.641C516.746 168.641 511.277 167.908 506.395 166.443C501.561 165.027 497.435 163.025 494.017 160.438C490.599 157.898 487.986 154.871 486.18 151.355C484.324 147.889 483.396 144.104 483.396 140.003C483.396 135.657 484.153 131.922 485.667 128.797C487.132 125.623 489.061 123.035 491.453 121.033C493.797 118.982 496.458 117.493 499.437 116.565C502.464 115.589 505.491 115.101 508.519 115.101C512.229 115.101 515.403 115.687 518.04 116.858C520.677 118.03 522.947 119.422 524.852 121.033L522.728 124.036C522.142 123.548 521.434 123.011 520.604 122.425C519.822 121.839 518.895 121.302 517.82 120.813C516.795 120.276 515.647 119.837 514.378 119.495C513.157 119.153 511.839 118.982 510.423 118.982C507.64 118.982 505.101 119.495 502.806 120.521C500.511 121.546 498.533 123.011 496.873 124.915C495.262 126.771 494.017 128.992 493.138 131.58C492.259 134.119 491.819 136.927 491.819 140.003C491.819 144.056 492.698 147.62 494.456 150.696C496.165 153.821 498.411 156.409 501.194 158.46C504.026 160.56 507.2 162.146 510.716 163.221C514.28 164.295 517.894 164.832 521.556 164.832C527.073 164.832 531.858 164.026 535.911 162.415C540.013 160.853 543.65 158.729 546.824 156.043C550.047 153.357 552.928 150.208 555.467 146.595C558.055 142.981 560.569 139.148 563.011 135.096C565.452 130.994 567.967 126.819 570.555 122.571C573.143 118.274 576.097 114.075 579.417 109.974C574.095 114.368 568.87 117.737 563.743 120.081C558.665 122.376 553.733 123.523 548.948 123.523C545.97 123.523 543.089 122.986 540.306 121.912C537.522 120.789 535.032 119.129 532.835 116.932C530.687 114.686 528.929 111.902 527.562 108.582C526.194 105.213 525.438 101.258 525.291 96.7168C522.312 97.3516 519.261 97.8887 516.136 98.3281C513.011 98.7676 509.837 99.1338 506.614 99.4268L506.321 95.6182ZM583.226 32.4834C579.466 32.4834 575.706 33.2158 571.946 34.6807C568.187 36.1455 564.573 38.1963 561.106 40.833C557.688 43.4697 554.466 46.5947 551.438 50.208C548.411 53.8213 545.726 57.7764 543.382 62.0732C541.087 66.3213 539.183 70.8379 537.669 75.623C536.204 80.4082 535.276 85.2666 534.886 90.1982C544.798 87.415 553.392 83.9971 560.667 79.9443C567.942 75.8428 573.973 71.5459 578.758 67.0537C583.543 62.5615 587.107 58.0693 589.451 53.5771C591.795 49.085 592.967 44.9834 592.967 41.2725C592.967 38.3916 592.137 36.2188 590.477 34.7539C588.865 33.2402 586.448 32.4834 583.226 32.4834ZM655.955 30.4326C657.664 30.4326 659.08 30.8477 660.203 31.6777C661.375 32.5078 661.961 34.0215 661.961 36.2188C661.961 37.7324 661.644 39.5391 661.009 41.6387C660.423 43.7383 659.593 46.0332 658.519 48.5234C657.493 50.9648 656.272 53.5527 654.856 56.2871C653.44 58.9727 651.902 61.6582 650.242 64.3438C648.631 67.0293 646.922 69.6416 645.115 72.1807C643.357 74.7197 641.6 77.0635 639.842 79.2119C636.326 83.5576 633.274 87.2197 630.687 90.1982C628.147 93.1768 625.95 95.7158 624.095 97.8154C622.239 99.8662 620.677 101.551 619.407 102.869C618.138 104.139 617.015 105.237 616.038 106.165C615.062 107.093 614.158 107.947 613.328 108.729C612.498 109.461 611.644 110.291 610.765 111.219C610.374 113.074 610.179 114.856 610.179 116.565C610.228 118.226 610.252 119.764 610.252 121.18C610.252 125.428 610.936 128.577 612.303 130.628C613.67 132.679 615.599 133.704 618.089 133.704C619.749 133.704 621.409 133.289 623.069 132.459C624.778 131.58 626.463 130.457 628.123 129.09C629.783 127.723 631.395 126.185 632.957 124.476C634.52 122.718 635.984 120.96 637.352 119.202C638.768 117.396 640.037 115.662 641.16 114.002C642.283 112.342 643.26 110.901 644.09 109.681L646.8 111.731C646.653 111.927 646.165 112.708 645.335 114.075C644.554 115.394 643.504 117.005 642.186 118.909C640.867 120.813 639.305 122.864 637.498 125.062C635.691 127.21 633.738 129.212 631.639 131.067C629.539 132.923 627.317 134.461 624.974 135.682C622.679 136.902 620.335 137.513 617.942 137.513C615.94 137.513 614.012 137.146 612.156 136.414C610.35 135.633 608.738 134.437 607.322 132.825C605.955 131.165 604.832 129.065 603.953 126.526C603.123 123.987 602.708 120.936 602.708 117.371C602.708 112.928 603.221 108.289 604.246 103.455C605.32 98.5723 606.761 93.6895 608.567 88.8066C610.374 83.875 612.498 79.0166 614.939 74.2314C617.381 69.4463 619.969 64.9053 622.703 60.6084C625.486 56.2627 628.367 52.2588 631.346 48.5967C634.373 44.8857 637.327 41.6875 640.208 39.002C643.138 36.3164 645.945 34.2168 648.631 32.7031C651.316 31.1895 653.758 30.4326 655.955 30.4326ZM612.083 104.7C616.233 100.403 620.237 96.0576 624.095 91.6631C628.001 87.2197 631.639 82.8496 635.008 78.5527C638.426 74.207 641.551 70.0078 644.383 65.9551C647.215 61.8535 649.632 57.9961 651.634 54.3828C653.636 50.7695 655.198 47.4736 656.321 44.4951C657.444 41.5166 658.006 38.9531 658.006 36.8047C658.006 36.4141 657.811 35.9014 657.42 35.2666C657.029 34.583 656.565 34.2412 656.028 34.2412C654.515 34.2412 652.513 35.2422 650.022 37.2441C647.532 39.2461 644.822 41.9805 641.893 45.4473C639.012 48.8652 636.009 52.8691 632.884 57.459C629.808 62.0488 626.902 66.9561 624.168 72.1807C621.434 77.4053 618.992 82.8008 616.844 88.3672C614.695 93.9336 613.108 99.3779 612.083 104.7ZM685.398 117.078C685.594 117.127 685.789 117.151 685.984 117.151C686.18 117.151 686.399 117.151 686.644 117.151C688.011 117.151 689.256 117.029 690.379 116.785C691.502 116.492 692.527 116.053 693.455 115.467C694.432 114.881 695.359 114.124 696.238 113.196C697.117 112.22 697.972 111.048 698.802 109.681L701.438 111.731C699.095 115.052 696.678 117.371 694.188 118.689C691.697 120.008 689.061 120.667 686.277 120.667C685.252 120.667 684.349 120.569 683.567 120.374C681.468 123.89 679.222 126.893 676.829 129.383C674.437 131.824 671.995 133.826 669.505 135.389C667.015 136.951 664.549 138.074 662.107 138.758C659.666 139.49 657.396 139.856 655.296 139.856C653.147 139.856 651.146 139.466 649.29 138.685C647.483 137.952 645.921 136.878 644.603 135.462C643.284 134.046 642.259 132.361 641.526 130.408C640.794 128.455 640.428 126.258 640.428 123.816C640.428 121.375 640.818 118.885 641.6 116.346C642.381 113.807 643.431 111.292 644.749 108.802C646.116 106.312 647.703 103.919 649.51 101.624C651.316 99.2803 653.27 97.1074 655.369 95.1055C657.469 93.1035 659.642 91.2969 661.888 89.6855C664.134 88.0742 666.38 86.7559 668.626 85.7305L670.97 88.8066C668.382 90.6621 665.745 93.0059 663.06 95.8379C660.423 98.6699 658.006 101.771 655.809 105.14C653.66 108.509 651.878 112.024 650.462 115.687C649.095 119.3 648.411 122.815 648.411 126.233C648.411 129.31 649.095 131.702 650.462 133.411C651.829 135.071 653.904 135.901 656.688 135.901C658.836 135.901 660.96 135.462 663.06 134.583C665.159 133.704 667.21 132.508 669.212 130.994C671.214 129.48 673.143 127.698 674.998 125.647C676.854 123.548 678.611 121.326 680.271 118.982C678.855 118.152 677.61 117.054 676.536 115.687C675.462 114.271 674.559 112.684 673.826 110.926C673.094 109.119 672.532 107.19 672.142 105.14C671.8 103.089 671.629 100.989 671.629 98.8408C671.629 96.6924 671.897 94.666 672.435 92.7617C672.972 90.8574 673.704 89.1973 674.632 87.7812C675.608 86.3164 676.731 85.1689 678.001 84.3389C679.271 83.5088 680.662 83.0938 682.176 83.0938C683.543 83.0938 684.764 83.46 685.838 84.1924C686.912 84.876 687.815 85.8525 688.548 87.1221C689.28 88.3428 689.842 89.8076 690.232 91.5166C690.623 93.2256 690.818 95.0566 690.818 97.0098C690.818 98.4746 690.696 100.086 690.452 101.844C690.208 103.602 689.842 105.384 689.354 107.19C688.914 108.948 688.353 110.706 687.669 112.464C687.034 114.173 686.277 115.711 685.398 117.078ZM675.438 98.8408C675.438 100.257 675.56 101.795 675.804 103.455C676.048 105.115 676.438 106.727 676.976 108.289C677.513 109.852 678.196 111.316 679.026 112.684C679.856 114.002 680.882 115.052 682.103 115.833C682.981 114.124 683.714 112.391 684.3 110.633C684.935 108.826 685.447 107.093 685.838 105.433C686.277 103.772 686.57 102.234 686.717 100.818C686.912 99.3535 687.01 98.084 687.01 97.0098C687.01 95.5449 686.888 94.2021 686.644 92.9814C686.399 91.7607 686.058 90.7109 685.618 89.832C685.228 88.9043 684.715 88.1963 684.08 87.708C683.494 87.1709 682.835 86.9023 682.103 86.9023C681.126 86.9023 680.223 87.2441 679.393 87.9277C678.562 88.5625 677.854 89.4414 677.269 90.5645C676.683 91.6387 676.219 92.9082 675.877 94.373C675.584 95.7891 675.438 97.2783 675.438 98.8408Z" fill="#B3975F"/>
<g clip-path="url(#clip0_1052_145)">
<path d="M418.713 89.8102C418.713 89.8102 421.379 84.7273 418.173 82.5928C414.968 80.4583 410.66 82.7621 410.921 87.7575C411.182 92.753 415.138 95.9004 412.986 99.6381" fill="#B3975F"/>
<path d="M418.977 89.3342C418.977 89.3342 422.554 85.8296 427.15 87.0787C431.746 88.3279 430.228 94.3257 425.943 96.3509C421.659 98.3761 413.178 99.0032 413.178 99.0032" fill="#B3975F"/>
<path d="M411.473 85.9773C411.473 85.9773 411.488 85.9093 411.514 85.7831C411.524 85.7193 411.549 85.6439 411.573 85.5539C411.598 85.4644 411.624 85.3597 411.667 85.248C411.705 85.1348 411.748 85.0094 411.806 84.8794C411.858 84.7453 411.929 84.6083 412.004 84.4614C412.161 84.1732 412.363 83.8602 412.629 83.5608C412.894 83.261 413.223 82.9742 413.613 82.739C413.806 82.618 414.018 82.5203 414.238 82.4285C414.462 82.3487 414.694 82.2719 414.938 82.2308C415.908 82.0328 417.009 82.2472 417.91 82.8061C418.362 83.0718 418.731 83.4369 418.995 83.8633C419.26 84.29 419.403 84.7775 419.475 85.2563C419.604 86.224 419.457 87.1435 419.293 87.8722C419.126 88.6053 418.933 89.1636 418.835 89.4954C418.735 89.8255 418.727 89.9391 418.884 89.7563C419.032 89.5717 419.378 88.9766 419.697 88.0005C419.775 87.7563 419.852 87.4887 419.915 87.1967C419.98 86.9051 420.034 86.5892 420.063 86.2494C420.093 85.9104 420.101 85.5475 420.065 85.1665C420.026 84.787 419.941 84.3868 419.784 83.9913C419.628 83.5967 419.395 83.2078 419.086 82.8694C418.779 82.5298 418.395 82.2463 417.994 82.0213C417.185 81.5606 416.184 81.3061 415.171 81.4016C414.16 81.4897 413.153 81.9232 412.38 82.6289C411.599 83.3283 411.054 84.2695 410.768 85.257C410.625 85.7517 410.536 86.2585 410.505 86.762C410.474 87.2657 410.491 87.7671 410.538 88.2524C410.591 88.7384 410.674 89.2147 410.782 89.6771C410.891 90.1386 411.026 90.5845 411.172 91.015C411.767 92.7334 412.551 94.1854 412.967 95.4677C413.183 96.1061 413.298 96.6989 413.327 97.2209C413.353 97.7428 413.283 98.1894 413.196 98.5452C413.144 98.7203 413.105 98.8788 413.053 99.008C413.03 99.0738 413.009 99.1348 412.99 99.1893C412.968 99.2434 412.948 99.2916 412.931 99.3341C412.863 99.5048 412.843 99.5878 412.879 99.5668C412.946 99.5237 413.127 99.3101 413.323 98.9243C413.517 98.5401 413.698 97.9646 413.729 97.264C413.74 96.9151 413.716 96.5375 413.654 96.148C413.593 95.7575 413.489 95.358 413.367 94.9537C413.12 94.1441 412.783 93.3236 412.471 92.5098C412.158 91.696 411.869 90.8865 411.675 90.1166C411.474 89.3481 411.367 88.6228 411.333 88.0012C411.296 87.3803 411.33 86.8729 411.377 86.5218C411.401 86.3471 411.429 86.2112 411.443 86.1177C411.461 86.0258 411.473 85.9773 411.473 85.9773Z" fill="#A66E00"/>
<path d="M428.195 95.2984C428.195 95.2984 428.257 95.2397 428.368 95.1273C428.473 95.0091 428.637 94.8435 428.818 94.611C429.186 94.154 429.667 93.4513 430.004 92.4986C430.172 92.0236 430.3 91.4859 430.333 90.9028C430.354 90.6116 430.337 90.3088 430.3 90.0024C430.251 89.6968 430.184 89.3843 430.058 89.0838C429.944 88.7795 429.774 88.4918 429.575 88.2251C429.47 88.0952 429.366 87.9634 429.241 87.8504C429.126 87.7274 428.993 87.6261 428.861 87.522C428.327 87.1138 427.69 86.8757 427.068 86.7303C425.825 86.4374 424.537 86.4733 423.432 86.7473C422.321 87.0148 421.385 87.4713 420.682 87.9183C419.975 88.3658 419.488 88.7981 419.231 89.0728C418.976 89.3522 418.947 89.462 419.159 89.3398C419.376 89.2243 419.944 88.7847 420.878 88.2923C421.345 88.0483 421.903 87.7934 422.549 87.5873C423.194 87.3794 423.929 87.2267 424.723 87.19C425.514 87.1611 426.374 87.2477 427.21 87.5156C427.619 87.6454 428.017 87.8306 428.36 88.0906C428.704 88.349 428.989 88.6819 429.186 89.0703C429.384 89.4584 429.496 89.8993 429.522 90.3578C429.549 90.8163 429.485 91.2906 429.363 91.7528C429.114 92.6798 428.614 93.5583 427.968 94.2952C427.32 95.0356 426.519 95.6242 425.643 96.0237C425.417 96.1219 425.193 96.2193 424.969 96.3161C424.739 96.4002 424.51 96.4843 424.283 96.5679C424.057 96.6556 423.824 96.7234 423.594 96.7949C423.364 96.8641 423.14 96.9433 422.91 97.0028C421.085 97.514 419.35 97.8497 417.876 98.1052C414.924 98.6043 413.01 98.7956 413.176 98.8747C413.501 99.0273 417.384 98.8487 421.136 98.1392C423.009 97.7777 424.848 97.2821 426.17 96.6736C426.841 96.361 427.347 96.0045 427.686 95.7412C427.85 95.6023 427.982 95.4973 428.066 95.4184C428.151 95.3407 428.195 95.2984 428.195 95.2984Z" fill="#A66E00"/>
</g>
<defs>
<clipPath id="clip0_1052_145">
<rect width="22.7635" height="19.0721" fill="white" transform="translate(413.246 78.0547) rotate(29)"/>
</clipPath>
</defs>
</svg>
